<svg version="1.1" id="Layer_1" xmlns="http://www.w3.org/2000/svg" xmlns:xlink="http://www.w3.org/1999/xlink" x="0px" y="0px"
	 width="100%" viewBox="0 0 1024 1024" enable-background="new 0 0 1024 1024" xml:space="preserve">
<path fill="#000000" opacity="1.000000" stroke="none" 
	d="
M1025.000000,924.000000 
	C1025.000000,957.619812 1025.000000,991.239685 1025.000000,1025.000000 
	C953.979187,1025.000000 882.958252,1025.000000 811.608887,1024.669189 
	C814.474365,1014.897156 817.418823,1005.362671 820.905884,996.031006 
	C835.192261,957.800476 854.309753,922.469299 883.368347,893.192688 
	C885.481934,891.063232 887.526184,888.864990 889.602722,886.698730 
	C888.548340,886.595276 888.014893,886.973267 887.500671,887.375854 
	C868.904297,901.933594 854.780762,920.425537 841.991333,939.953674 
	C824.831116,966.155396 811.963562,994.317322 805.000000,1025.000000 
	C583.979126,1025.000000 362.958221,1025.000000 141.359680,1024.547363 
	C138.979156,1002.326599 139.961090,980.445251 139.443619,957.947815 
	C136.516495,959.479248 136.633453,961.034973 136.344208,962.482483 
	C134.021774,974.105286 134.028183,985.938843 133.619644,997.682739 
	C133.303802,1006.761475 134.484573,1015.892334 135.000000,1025.000000 
	C103.312439,1025.000000 71.624878,1025.000000 39.592117,1024.668945 
	C48.520172,998.792297 59.688263,974.056213 71.719299,949.725159 
	C87.053238,918.714294 100.620430,886.657166 123.221794,859.798950 
	C124.538589,858.234131 124.709557,856.662170 124.166939,854.708496 
	C121.424736,844.835327 122.340340,834.929382 124.299126,825.080933 
	C128.734116,802.782959 138.704422,782.620178 148.711899,762.489929 
	C157.014175,745.789917 165.298233,729.102722 170.644699,711.129456 
	C176.737015,690.648743 180.003830,669.694397 181.502594,648.436890 
	C181.679016,645.934448 182.910950,642.417297 180.008530,641.115417 
	C175.993683,639.314697 171.543015,638.364990 167.187424,637.526306 
	C166.048904,637.307068 165.671387,639.420654 165.399948,640.739441 
	C164.730759,643.990723 164.042068,647.238831 163.297226,650.473511 
	C157.495361,675.669556 146.787766,698.226257 127.737267,716.252930 
	C122.249992,721.445251 116.374794,726.123596 108.767029,727.790466 
	C103.708511,728.898682 98.669960,729.185791 93.927460,725.464844 
	C94.705910,724.756531 95.109497,724.076233 95.645752,723.947144 
	C108.138954,720.939880 116.019669,712.272034 121.988770,701.747253 
	C136.197937,676.693481 138.544342,648.804077 140.624176,620.899902 
	C140.760590,619.069641 139.896866,617.799744 138.400070,616.732178 
	C124.283157,606.663452 115.879875,592.418030 109.800247,576.673584 
	C101.265594,554.571472 99.963509,531.252319 99.795761,507.963501 
	C99.616066,483.016418 102.318245,458.192444 105.953888,433.532501 
	C106.984032,426.545166 106.219643,421.633148 101.341110,415.785187 
	C89.867226,402.031189 86.976936,384.666534 86.986198,367.462158 
	C86.996765,347.823730 90.806755,328.452911 97.187859,309.789734 
	C106.258881,283.259186 117.910698,257.857056 131.451721,233.304489 
	C147.937393,203.412659 162.714020,172.550003 181.509232,143.971756 
	C194.550827,124.141937 209.075089,105.549423 228.530655,91.355591 
	C242.334839,81.284729 257.722168,73.993004 272.577759,65.781052 
	C300.013916,50.614750 328.235199,37.102760 358.097626,27.335070 
	C369.953217,23.457226 382.754364,20.300674 394.101715,26.220495 
	C404.297302,31.539467 412.609070,29.492729 422.507416,26.784773 
	C445.054352,20.616436 468.119843,18.367064 491.620819,20.444664 
	C510.376129,22.102724 528.950195,24.231558 546.896118,30.214537 
	C587.875916,43.876774 624.115417,65.771889 657.398682,93.063934 
	C688.046204,118.194756 712.330627,148.125046 729.013733,184.176529 
	C743.412964,215.292511 752.424988,248.128433 760.386780,281.301208 
	C769.163147,317.868073 781.398376,353.124756 799.518250,386.190918 
	C815.820618,415.940369 836.019897,443.062775 856.288940,470.130035 
	C878.720398,500.084961 898.337097,531.362732 903.909973,569.406860 
	C906.858521,589.536377 906.443665,609.233459 896.605408,627.722717 
	C895.238342,630.291748 895.346497,632.349976 897.047485,634.603638 
	C898.449890,636.461609 899.666321,638.462891 900.921875,640.428284 
	C922.659241,674.455627 940.777954,710.058105 947.775330,750.334778 
	C951.433105,771.389282 948.847534,791.097656 933.614990,807.589294 
	C933.224976,808.011475 933.198730,808.769531 933.039246,809.259094 
	C934.242004,811.111816 936.091736,811.627014 937.671021,812.469482 
	C970.777954,830.128174 995.414795,855.982422 1012.323242,889.372070 
	C1017.919739,900.423706 1020.441956,912.579834 1025.000000,924.000000 
M271.342163,371.441376 
	C265.798553,390.254639 256.971588,407.597137 247.561737,424.687103 
	C243.226669,432.560394 238.539566,440.255341 235.339081,448.715607 
	C231.341003,459.284180 233.397049,468.361023 242.018600,475.721588 
	C245.428680,478.632965 249.161484,481.164368 252.719223,483.905273 
	C256.530884,486.841888 260.662048,489.457458 262.547699,494.262177 
	C264.166931,498.388000 263.205383,499.909943 258.951355,499.930176 
	C248.334808,499.980652 239.224854,497.342712 234.294022,486.730499 
	C233.605026,485.247620 232.480316,483.921539 231.376678,482.684021 
	C219.048813,468.860901 218.450119,454.575653 228.517471,439.022003 
	C236.019577,427.431549 242.485794,415.168396 249.339584,403.162750 
	C250.505463,401.120453 252.019150,399.060211 251.571228,396.321228 
	C240.148392,399.303986 236.210693,397.362030 231.603363,386.651367 
	C230.552673,384.208893 229.413879,381.748413 228.822571,379.179535 
	C228.198685,376.469147 226.859024,375.950592 224.529617,376.829773 
	C221.727295,377.887329 218.912842,378.917419 216.144043,380.057556 
	C214.206528,380.855408 213.144608,382.247681 214.111511,384.408051 
	C218.676605,394.607513 215.167526,403.697693 210.893326,413.052368 
	C202.326035,431.803101 199.059235,451.289734 204.002289,471.781586 
	C213.090820,509.459106 224.811813,546.377747 236.115097,583.408142 
	C242.024338,602.767212 252.742020,620.060791 261.614624,638.132996 
	C266.458008,647.998291 271.019012,658.035095 276.454620,667.568542 
	C283.197906,679.395508 293.451355,685.832336 307.546997,685.774719 
	C316.885925,685.736511 326.110016,685.184875 335.338257,683.674988 
	C358.503265,679.884583 380.691895,673.279724 401.300293,661.824524 
	C421.104736,650.816162 440.693207,639.454163 459.973083,627.533752 
	C486.893127,610.889404 514.340149,595.074707 540.311340,576.947510 
	C547.986328,571.590576 556.587158,567.029053 561.080383,558.007874 
	C571.297852,537.494080 578.704285,516.017334 583.673584,493.657654 
	C584.839111,488.413025 585.116272,482.895477 587.583252,477.933075 
	C591.723267,478.376648 593.518921,481.143341 595.143005,484.108948 
	C599.142883,491.412689 605.460938,494.326477 613.618958,494.699707 
	C629.189087,495.412018 640.277588,487.876434 649.260681,476.182770 
	C658.592896,464.034668 668.350281,452.171356 677.013367,439.559601 
	C695.013489,413.354645 705.672607,384.851685 701.671997,352.307281 
	C699.520325,334.803680 692.439148,319.776245 679.409546,307.743469 
	C673.372131,302.167969 666.453491,300.095490 658.224548,302.213806 
	C648.782410,304.644409 640.814514,309.576111 633.397888,315.628082 
	C623.498718,323.705719 616.172974,334.119934 607.917297,343.693176 
	C604.324219,347.859741 600.774597,352.240784 594.219299,351.138000 
	C592.098206,350.781189 591.477295,352.706696 590.650879,354.091675 
	C583.556641,365.979950 575.223633,377.021698 567.263672,388.317017 
	C566.285828,389.704559 565.636353,391.717682 562.922974,391.478729 
	C560.552063,361.188416 550.165527,333.045074 539.032898,305.681824 
	C541.020081,302.972931 544.183472,304.928528 545.870667,302.171509 
	C539.907593,295.639008 532.528381,290.279175 527.056213,282.091339 
	C531.860535,281.981232 535.114746,285.145355 539.023438,283.891113 
	C539.028015,281.142700 536.835876,280.406189 535.392761,279.251129 
	C519.134399,266.238342 503.081177,252.988937 487.534241,239.123337 
	C484.374512,236.305283 482.255615,233.200775 481.856140,229.040878 
	C481.250153,222.729858 478.673004,216.554840 479.935364,210.357773 
	C482.007050,209.297150 483.770569,211.261688 485.674744,209.122894 
	C482.903076,201.198639 475.285675,195.345856 473.741760,186.630966 
	C474.826477,185.447235 476.041138,185.691498 477.182922,185.685318 
	C478.912079,185.675964 480.995544,187.006836 482.198914,184.882309 
	C483.393463,182.773270 481.721893,181.089661 480.739899,179.413239 
	C476.595184,172.337631 471.762054,165.789688 465.846710,160.066849 
	C464.713959,158.970963 463.091156,158.071640 463.473877,155.537903 
	C465.852203,154.511932 468.501617,153.822281 471.329163,153.626709 
	C472.937592,153.515442 475.043030,153.832565 475.603485,151.859024 
	C476.214813,149.706543 474.260468,148.592316 472.794952,147.587830 
	C465.276917,142.434937 456.941284,139.186707 448.042633,137.385025 
	C436.425720,135.032990 424.676025,134.187027 412.831573,134.390808 
	C410.840363,134.425079 408.557343,135.118317 406.327881,132.589264 
	C411.928131,129.576889 417.192352,126.745239 422.456604,123.913597 
	C413.095459,125.165146 404.740265,128.358536 397.705170,134.614136 
	C392.464600,139.274017 389.887024,139.457321 384.453552,136.009384 
	C382.910858,135.030441 381.478699,134.977844 379.737854,135.169693 
	C370.403961,136.198318 361.535095,138.990814 352.673950,141.899078 
	C350.595428,142.581268 348.509277,144.268555 345.838196,142.626358 
	C346.305664,134.091629 351.549805,126.829681 352.818481,118.443825 
	C348.272705,124.478561 344.171509,130.671967 340.195892,136.944931 
	C338.157196,140.161743 335.810822,142.809570 331.757690,143.273651 
	C329.712280,143.507843 328.539856,144.761383 327.749268,146.582642 
	C324.860107,153.237961 324.603485,153.504959 318.240234,149.781464 
	C313.725891,147.139832 309.675507,147.049133 305.059082,149.344925 
	C300.448547,151.637817 295.645569,153.616043 290.780334,155.311554 
	C272.107422,161.819000 257.378021,173.008270 247.805084,190.590759 
	C243.897720,197.767349 240.212555,205.033844 237.298141,212.676315 
	C227.988571,237.088776 220.143188,262.040405 210.211502,286.223663 
	C207.829514,292.023712 205.445572,297.822998 203.199921,303.288269 
	C204.158936,304.615448 205.051468,304.731995 205.825150,304.535767 
	C213.790085,302.515869 220.017731,306.039429 225.991119,310.637115 
	C229.685883,313.480896 233.447037,316.256470 237.330353,318.833679 
	C246.595718,324.982788 248.734451,324.049103 250.598190,313.029480 
	C251.602524,307.091217 252.328064,301.105804 253.249084,294.653320 
	C255.751785,296.431305 256.000366,298.680847 256.290131,300.687836 
	C257.119659,306.433563 257.708405,312.214478 258.364868,317.984619 
	C259.269287,325.934052 261.357666,333.501251 267.489136,339.025818 
	C271.593781,342.724121 272.892303,347.317566 273.289398,352.343536 
	C273.776611,358.510468 273.294617,364.645905 271.342163,371.441376 
M372.476135,853.001892 
	C385.006470,871.974243 404.532013,877.106445 425.267090,878.446289 
	C456.402222,880.458191 486.138184,873.459473 514.663940,861.413818 
	C560.949707,841.868530 601.633789,813.798279 637.591736,778.862488 
	C654.000305,762.920288 668.910278,745.679565 680.406128,725.705383 
	C682.382812,722.270874 681.965820,720.210938 678.985474,717.654053 
	C668.710571,708.838501 659.275879,699.148010 651.805237,687.809326 
	C636.828430,665.078125 631.060059,639.017883 625.718384,612.929138 
	C622.176025,595.628479 621.556946,577.948181 621.112305,560.346008 
	C620.814148,548.542236 621.343567,536.697266 621.999451,524.898315 
	C622.328674,518.976379 621.624878,517.543213 615.694275,518.513489 
	C609.143311,519.585327 602.672058,521.153564 596.178772,522.564270 
	C593.280762,523.193909 591.960205,525.221985 590.919861,527.952148 
	C586.416199,539.771179 581.675232,551.499939 577.002869,563.254456 
	C570.822205,578.803406 561.435364,592.226685 549.901672,604.248901 
	C531.203247,623.739319 511.219299,641.894470 491.727417,660.564148 
	C471.022858,680.395386 450.262360,700.110474 427.461121,717.586426 
	C408.189850,732.356873 401.477783,732.974792 380.625916,720.680420 
	C378.995026,719.718872 377.503876,718.033875 375.308075,718.992249 
	C373.828979,720.718201 374.958374,722.334167 375.472717,723.781677 
	C382.436371,743.379761 388.054413,763.394226 393.828735,783.353638 
	C397.706848,796.758545 403.410950,809.617676 405.820709,823.453125 
	C406.508453,827.401733 407.019592,831.378906 405.338531,835.721802 
	C396.903198,823.811646 392.054321,811.134094 387.566956,798.275574 
	C385.676605,792.858826 384.780640,792.559082 379.620605,795.329285 
	C374.909332,797.858582 370.540314,800.900024 366.520416,804.443115 
	C364.714355,806.034973 363.577301,807.788940 363.198853,810.324219 
	C360.936066,825.481323 364.627808,839.318787 372.476135,853.001892 
M887.064941,583.250671 
	C881.933228,557.319824 869.380249,535.018372 853.282471,514.490845 
	C836.855042,493.542938 819.089478,473.647949 803.795593,451.809631 
	C796.859863,441.905975 790.143372,431.848755 783.327393,421.861206 
	C807.167908,492.919342 840.235291,559.048584 886.344116,618.966614 
	C889.228149,615.709045 889.515320,612.829895 889.642273,609.820068 
	C890.008789,601.125427 888.617065,592.601440 887.064941,583.250671 
M840.033386,629.377136 
	C820.375427,599.601257 801.904175,569.080872 783.815613,538.310425 
	C782.904236,540.455200 783.642212,541.956055 784.277344,543.465027 
	C789.120117,554.971008 793.800598,566.549561 798.867004,577.956543 
	C814.427856,612.991455 833.324341,646.375610 850.005981,680.855347 
	C863.587891,708.928223 875.556702,737.597290 879.799194,768.851379 
	C880.178406,771.645264 880.206970,774.489136 880.634705,777.273499 
	C881.104126,780.329895 883.333862,782.059875 886.162231,782.170776 
	C889.105103,782.286072 888.484436,779.464050 888.764099,777.639771 
	C889.442627,773.212891 890.252686,768.785034 890.563965,764.326477 
	C892.380005,738.311523 886.708557,713.759338 875.748779,690.289612 
	C865.850281,669.092651 853.168701,649.520508 840.033386,629.377136 
M139.660324,255.065216 
	C120.030167,293.102356 103.702721,332.168060 100.886391,375.651978 
	C100.146027,387.083099 102.517952,397.713501 106.806213,408.103607 
	C107.109123,408.837524 107.621155,409.583679 109.568825,409.138519 
	C120.451973,354.413025 131.577484,299.340515 146.283661,245.026367 
	C142.884613,247.413940 142.012589,251.276733 139.660324,255.065216 
M136.405640,487.736938 
	C135.886810,490.173584 135.395782,492.616577 134.844849,495.045929 
	C129.371307,519.181641 125.984848,543.429199 131.435104,568.055847 
	C133.498581,577.379578 135.743591,586.685364 141.714188,594.827332 
	C142.253510,564.371582 143.024338,534.004944 146.737320,503.850677 
	C150.415268,473.981140 154.725418,444.189484 158.758286,414.363647 
	C149.943100,438.247070 142.196121,462.273193 136.405640,487.736938 
M254.435013,364.849274 
	C252.841034,358.761688 249.242340,354.044952 244.042068,350.710388 
	C236.770599,346.047760 229.368256,341.579987 221.905930,337.227722 
	C217.448959,334.628296 212.677094,332.706573 207.508698,331.862366 
	C202.205811,330.996185 200.295303,332.300751 199.074722,337.405579 
	C198.324173,340.544586 197.963272,343.730164 198.555435,346.800323 
	C200.030212,354.446747 201.825912,362.033722 203.626755,369.612701 
	C203.982101,371.108246 204.930878,373.829407 206.680420,372.481171 
	C211.531403,368.743011 220.069366,371.243958 222.270065,363.177826 
	C222.536926,362.199768 223.678864,361.818970 224.729401,361.736298 
	C227.378555,361.527740 230.059708,360.981873 232.672882,361.208160 
	C238.986145,361.754791 245.791702,361.209717 249.778275,367.992218 
	C250.409256,369.065765 252.121780,369.850311 253.747711,369.336456 
	C254.991287,368.239685 254.503738,366.845795 254.435013,364.849274 
M216.665955,774.377869 
	C222.724930,754.860352 229.259552,735.449524 232.066818,715.112488 
	C232.681946,710.656128 234.597275,706.000061 232.433807,700.735046 
	C231.601105,702.050171 230.961655,702.687012 230.753616,703.442688 
	C224.194077,727.267090 214.052505,749.731262 204.727737,772.515198 
	C199.811646,784.527161 196.065338,796.958435 193.325317,809.668579 
	C192.817078,812.026184 192.027802,814.695435 195.934814,814.465942 
	C199.888382,814.233826 206.634491,808.239624 207.798477,804.318909 
	C210.684769,794.596802 213.600250,784.883423 216.665955,774.377869 
M931.623474,774.477600 
	C931.623657,755.580872 924.754883,728.539124 917.476868,719.266174 
	C920.498718,741.927185 918.178467,763.860840 911.147461,785.300720 
	C906.828674,798.470154 906.772705,798.362244 919.631226,803.492493 
	C922.845459,804.774780 924.467102,803.918884 925.929077,800.977844 
	C929.939941,792.909485 931.883850,784.435730 931.623474,774.477600 
M255.371155,928.253296 
	C256.092712,930.111694 256.714600,932.016357 257.552063,933.820984 
	C262.921478,945.391968 270.208954,955.343933 281.632111,961.661133 
	C285.035126,963.543091 288.616974,965.007629 292.831268,963.415283 
	C289.348114,960.273254 285.321228,958.028198 281.931458,955.056396 
	C259.330322,935.242004 252.776093,909.492432 255.143387,880.690308 
	C255.644424,874.594177 256.245667,866.674316 254.966446,864.032227 
	C250.029526,885.615967 248.655121,906.542419 255.371155,928.253296 
M201.227127,946.266907 
	C207.362122,955.127930 212.493912,959.469727 219.365417,961.256226 
	C217.260040,958.908875 215.599487,956.848633 213.726669,955.003845 
	C203.151443,944.586792 197.613953,931.653381 194.540359,917.392700 
	C192.098373,906.062561 192.522278,894.610901 192.585571,883.156738 
	C192.599136,880.699951 192.803879,878.133240 190.979263,874.731384 
	C186.431290,900.362610 187.210754,923.917297 201.227127,946.266907 
M176.096191,588.269104 
	C174.234283,598.008789 172.419846,607.757935 170.495544,617.485291 
	C168.932526,625.386414 168.869629,625.381470 175.677963,629.903320 
	C177.036377,630.805664 178.416473,632.293091 180.141510,631.486633 
	C182.186249,630.530640 181.577560,628.337463 181.602615,626.584839 
	C181.806503,612.321838 180.156372,598.145386 179.547440,583.919434 
	C179.498306,582.771362 179.356689,581.531799 177.681839,581.445251 
	C175.593353,583.050415 176.735901,585.451599 176.096191,588.269104 
M699.709595,805.237122 
	C705.096680,798.832764 710.651855,792.548950 713.989075,784.510620 
	C688.717346,817.248840 657.775513,843.993408 625.524536,869.379211 
	C652.958801,851.453430 678.132385,830.952820 699.709595,805.237122 
M337.222473,867.337036 
	C339.697479,871.659851 341.161774,876.727783 346.288147,879.296509 
	C337.502869,861.876953 331.103638,843.785767 328.562195,824.414978 
	C326.577850,839.487793 330.928009,853.238525 337.222473,867.337036 
M142.735153,843.134949 
	C144.623383,841.608887 147.349167,840.796021 147.577133,837.816956 
	C147.970428,832.677612 148.338776,827.534546 148.581818,822.386658 
	C148.646637,821.013611 149.152222,819.324585 146.815720,818.096985 
	C141.319168,827.238098 138.065781,837.161621 134.713638,848.000366 
	C136.311829,847.348511 136.816315,847.231262 137.220154,846.962708 
	C138.882889,845.856750 140.515030,844.704834 142.735153,843.134949 
M701.079529,553.316162 
	C700.881531,552.867188 700.683533,552.418213 700.485596,551.969238 
	C707.087341,578.947754 715.018433,605.411560 730.100769,629.108459 
	C718.923096,604.634644 709.064697,579.652893 701.079529,553.316162 
z"/>
<path fill="#000000" opacity="1.000000" stroke="none" 
	d="
M307.517883,299.463623 
	C324.457764,289.394043 339.275146,276.761200 355.949188,267.034882 
	C365.753906,261.315582 375.162506,254.365860 386.819916,252.271912 
	C393.817566,251.014954 400.781189,251.259583 407.618347,252.751572 
	C423.637512,256.247284 438.224701,262.871826 450.748077,273.654175 
	C451.623169,274.407593 452.392548,275.304474 453.100739,276.220032 
	C453.357056,276.551392 453.289673,277.133148 453.362061,277.554718 
	C452.351868,278.435333 451.399597,278.018036 450.486664,277.622772 
	C425.971771,267.008911 403.575653,273.353851 382.202667,286.456696 
	C367.831665,295.266876 355.460144,306.834167 341.771332,316.604492 
	C335.536011,321.054871 329.122192,325.317078 323.292633,330.258392 
	C315.865662,336.553711 307.960968,336.620575 300.088959,332.419373 
	C284.847168,324.284912 277.343964,311.065155 276.651306,293.895874 
	C276.543915,291.234436 277.072937,288.740692 278.734955,286.472504 
	C281.125488,287.754303 280.372772,289.835236 280.294342,291.455383 
	C280.082458,295.833038 280.798462,300.103668 281.611053,304.330444 
	C282.736420,310.184204 285.961273,311.641785 291.356567,309.129791 
	C296.967651,306.517273 302.110138,303.121246 307.517883,299.463623 
z"/>
<path fill="#000000" opacity="1.000000" stroke="none" 
	d="
M613.709717,435.041321 
	C614.164551,430.833252 615.889526,427.772583 618.622314,425.082184 
	C621.345093,422.401520 623.777893,419.422821 626.295776,416.538025 
	C634.188782,407.495056 634.911804,401.179871 628.875671,390.760773 
	C625.645508,385.185089 623.176208,379.557526 623.565674,372.889984 
	C623.794678,368.969818 624.823669,365.341095 626.399597,361.855225 
	C632.255188,348.902557 640.784424,337.927368 651.452637,328.594788 
	C654.879944,325.596588 658.793640,323.355713 663.250183,322.301880 
	C670.907593,320.491211 677.898193,321.292633 682.891357,328.238953 
	C693.354492,342.795044 695.439209,359.015808 692.112854,376.223206 
	C691.849854,377.583832 691.532410,379.213104 689.568359,380.175781 
	C688.161011,378.147034 688.665100,375.800415 688.683044,373.663574 
	C688.757874,364.805115 687.737915,356.081818 685.630249,347.495453 
	C685.079712,345.252686 684.266724,343.018097 683.212952,340.965179 
	C679.498413,333.728241 671.860840,333.315948 667.324036,340.059265 
	C666.305054,341.573975 665.430054,343.206085 664.659607,344.863556 
	C662.570007,349.359161 659.274170,352.354675 654.445496,353.704468 
	C652.695801,354.193573 651.004089,354.956940 649.363647,355.754913 
	C646.815186,356.994476 644.901367,358.983185 644.911255,361.896942 
	C644.920837,364.733673 647.163391,366.172333 649.507629,367.286713 
	C649.658081,367.358246 649.802856,367.451172 649.961121,367.495667 
	C658.318481,369.844208 665.157898,374.143738 666.800110,383.289795 
	C668.664124,393.671600 668.104065,403.853851 661.447510,412.838715 
	C656.304565,419.780518 650.261353,425.456390 642.080139,428.831635 
	C634.998596,431.753174 628.324097,435.336853 623.345825,441.663391 
	C619.897034,446.046143 616.451050,445.072906 614.740845,439.815887 
	C614.280701,438.401520 614.047302,436.913422 613.709717,435.041321 
z"/>
<path fill="#000000" opacity="1.000000" stroke="none" 
	d="
M361.848145,574.409912 
	C350.815552,573.279663 340.531219,570.526733 330.144989,568.369324 
	C311.910675,564.581787 294.024536,565.291565 275.911530,569.748169 
	C267.505829,571.816223 259.917847,573.760376 255.093948,581.610291 
	C254.009720,583.374634 252.054260,584.649780 249.556625,585.174438 
	C248.226959,583.659607 247.748520,581.803894 247.673035,579.815369 
	C247.284988,569.596069 248.371857,559.557922 251.730453,549.860352 
	C253.902969,543.587402 258.358795,541.042114 264.653076,543.209106 
	C269.932861,545.026733 274.620209,544.711365 279.573761,542.406311 
	C291.010742,537.084351 302.343658,537.617310 313.733978,543.015442 
	C328.171783,549.857910 342.796875,556.304260 357.295563,563.020020 
	C359.842804,564.199890 362.269989,565.718140 364.556641,567.354004 
	C366.141968,568.488159 367.871063,569.925781 367.261444,572.288879 
	C366.561951,575.000427 364.180389,574.235596 361.848145,574.409912 
z"/>
<path fill="#000000" opacity="1.000000" stroke="none" 
	d="
M379.824890,333.559204 
	C401.392273,330.812958 421.786896,333.507385 441.701782,340.863037 
	C441.020020,343.836365 439.221344,343.247620 437.904266,343.325867 
	C432.096222,343.670807 426.282410,344.060486 420.468292,344.102692 
	C417.436768,344.124725 416.463318,345.250427 416.248444,348.192780 
	C416.033630,351.133972 415.243622,354.079559 414.363708,356.917114 
	C411.787842,365.223511 404.276459,370.757843 397.055878,369.870667 
	C385.456665,368.445496 379.120270,362.765015 378.776276,352.512726 
	C378.490143,343.985291 377.283081,345.573181 371.273834,346.495453 
	C364.029022,347.607361 357.192993,350.354431 350.161743,352.328552 
	C348.144501,352.894928 347.244415,354.448822 346.447601,356.097473 
	C344.711670,359.689301 343.073273,363.328064 341.368011,366.934906 
	C339.943512,369.947876 337.640778,372.005341 334.457275,373.010895 
	C332.867767,373.513000 331.510254,373.222198 330.644348,371.607758 
	C329.878479,370.179810 329.392731,368.785675 331.113861,367.708466 
	C332.926910,366.573669 333.109985,365.063629 332.930298,363.007111 
	C332.345825,356.317505 339.740784,344.222260 346.078766,341.569916 
	C356.729034,337.112976 367.990204,335.055115 379.824890,333.559204 
z"/>
<path fill="#000000" opacity="1.000000" stroke="none" 
	d="
M291.393372,594.698547 
	C305.041534,594.053711 317.973877,595.560242 330.714935,599.010620 
	C330.696503,602.039490 328.278259,602.233093 326.676575,603.058411 
	C318.840302,607.096558 310.171539,607.973267 301.645844,609.189514 
	C294.271790,610.241577 286.949738,611.985046 279.390656,611.422607 
	C277.358124,611.271423 275.420135,611.054199 273.685608,609.938538 
	C271.438080,608.492981 270.048248,606.326233 269.988281,603.758850 
	C269.921906,600.915833 272.447815,600.038147 274.636841,599.237549 
	C279.943146,597.296997 285.355103,595.706726 291.393372,594.698547 
z"/>
<path fill="#000000" opacity="1.000000" stroke="none" 
	d="
M359.777222,326.519104 
	C374.854004,323.621765 389.376617,323.202850 404.144440,328.428406 
	C402.081665,330.881195 399.775024,330.321869 397.796478,330.265564 
	C381.227936,329.794037 365.097351,332.577667 349.057983,336.366058 
	C342.692657,337.869507 337.046661,340.190521 333.320343,345.906982 
	C332.705261,346.850555 332.042694,347.912292 330.366516,347.801605 
	C327.983856,344.379120 329.726593,341.673431 332.237091,339.304504 
	C339.867249,332.104675 349.147736,328.335876 359.777222,326.519104 
z"/>
<path fill="#000000" opacity="1.000000" stroke="none" 
	d="
M635.108032,477.018982 
	C631.760620,482.532318 624.825134,482.111023 620.553467,479.913177 
	C616.348328,477.749512 613.983398,473.219788 614.933838,469.197174 
	C616.158081,464.015442 620.955444,460.078766 626.440430,459.636688 
	C630.859314,459.280609 634.898315,459.967621 637.270752,464.159912 
	C639.862061,468.738922 637.897705,472.815552 635.108032,477.018982 
z"/>
<path fill="#000000" opacity="1.000000" stroke="none" 
	d="
M300.829773,475.932251 
	C298.928467,480.812286 295.942322,481.647705 291.644348,479.383728 
	C285.638550,476.220123 279.273712,475.823853 272.788483,477.727325 
	C270.695129,478.341736 268.625946,478.684265 266.177887,478.325104 
	C265.023804,474.644287 266.475464,471.857208 269.229065,469.635101 
	C277.830261,462.693817 295.283997,466.004547 300.829773,475.932251 
z"/>
<path fill="#000000" opacity="1.000000" stroke="none" 
	d="
M320.558777,466.961487 
	C319.673981,455.931122 310.959869,450.895508 303.858765,444.254028 
	C315.796204,443.366272 324.961090,451.329895 327.203278,463.816803 
	C328.702850,472.168274 323.471741,483.790802 312.699493,487.141205 
	C316.223572,480.325470 319.405396,474.191345 320.558777,466.961487 
z"/>
<path fill="#000000" opacity="1.000000" stroke="none" 
	d="
M380.668732,371.726074 
	C384.311737,373.166931 388.519958,371.351868 391.234009,374.814819 
	C389.456085,377.769348 386.548553,377.034393 384.084869,377.564728 
	C376.766510,379.140137 369.558746,378.612335 362.403168,376.636993 
	C360.595276,376.137909 357.742096,376.466522 358.214874,373.587891 
	C358.649017,370.944550 361.366058,371.690887 363.235260,371.666595 
	C368.891571,371.592987 374.549835,371.671936 380.668732,371.726074 
z"/>
</svg>