<?xml version="1.0" encoding="UTF-8"?>
<svg xmlns="http://www.w3.org/2000/svg" width="1024" height="1024" viewBox="0 0 1024 1024" shape-rendering="geometricPrecision">
  <title>Vectorized anime portrait from original PNG</title>
  <desc>Posterized SVG vector trace, transparent background.</desc>
  <g id="portrait">
    <path fill="#ffffff" fill-rule="evenodd" d="M527 683L516 694L515 694L492 716L490 717L496 716L494 716L493 715L503 705L504 705L520 690L521 690L525 685L526 686L526 691L525 692L525 696L524 697L524 699L518 705L504 713L514 708L522 701L523 701L525 697L525 693L526 692L526 684ZM601 524L597 539L586 565L582 586L590 576L596 565ZM592 553L593 554L593 557L591 560L591 563L590 564L586 578L584 581L583 580L583 578L584 577L584 572L586 568L586 565L590 557L590 555ZM592 552L593 551L594 553L593 554ZM360 467L364 475L367 487L370 491L371 488L373 486L373 484L376 477L376 474L376 477L375 478L374 483L370 490L367 486L367 484L365 480L365 477L362 472L362 470L363 469L367 471L369 473L372 473L369 473L367 471ZM361 469L362 468L363 469L362 470ZM359 457L360 460L363 463L363 464L366 467L371 470L362 462L362 461L360 459L360 457ZM362 455L363 456L363 458L365 459L367 463L374 470L376 470L377 471L375 469L372 468L368 464L368 463L365 460L364 457ZM342 431L341 432L341 436L342 437L342 439L349 451L350 449L351 450L347 443L345 436ZM348 448L349 447L350 449L349 450ZM342 432L344 434L345 438L347 441L347 443L349 446L348 448L346 446L342 439L342 437L341 436L341 433ZM352 429L352 430L353 430L359 436L360 436L365 442L364 443L357 443L355 444L353 441L353 439L351 436L351 433L350 432L351 436L353 439L354 444L356 444L357 443L367 443L360 436L359 436L353 429ZM568 406L569 407L569 410L570 411L570 414L571 415L571 418L572 419L572 422L573 423L573 426L574 427L574 432L575 433L575 436L577 440L577 444L576 433L575 432L574 425L572 421L572 418L571 417L570 411L569 410L569 407ZM489 399L487 399L488 407L488 406L490 404L490 400ZM587 383L583 389L583 395L590 401L596 386ZM583 392L584 391L585 392L587 391L588 392L588 395L589 396L587 398L584 395ZM603 385L614 392L616 392L624 397L634 400L633 389L629 382L623 376L619 374L614 374L610 376ZM606 380L609 377L612 376L615 380L614 381L624 393L619 394L606 387L604 385ZM460 375L462 382L469 396L473 394L478 394L483 392L494 392L495 393L476 368L469 370ZM499 364L512 400L522 422L531 435L550 451L545 427L540 412L519 391L505 374ZM539 416L540 415L541 416L540 417ZM508 386L509 385L523 401L532 405L540 413L540 415L536 416L532 414L525 413L516 406L511 397ZM506 381L507 380L508 381L507 382ZM505 379L506 378L507 379L506 380ZM619 360L612 360L606 363L593 378L601 382L604 376L612 369L616 367L622 368L632 379L637 391L637 403L635 404L635 408L634 409L631 404L601 390L594 401L595 403L610 407L620 407L623 411L618 419L613 423L612 421L615 415L615 417L609 423L612 424L608 427L605 423L605 415L595 407L597 406L605 409L614 410L593 406L606 417L606 420L600 431L623 421L634 410L635 411L632 416L623 424L601 434L593 440L591 438L591 435L599 416L570 388L581 429L583 467L583 464L586 461L591 459L604 458L618 449L630 435L640 418L643 406L643 393L640 381L634 371L627 364ZM605 423L606 425L604 427L603 425ZM580 423L581 422L582 423L581 424ZM574 395L577 399L577 404L578 405L578 408L579 409L579 412L580 413L580 416L581 417L581 421L580 422L579 421L578 414L575 407L575 403L574 402L574 399L573 398L573 396ZM572 394L573 393L574 394L573 395ZM599 381L600 380L601 381L600 382ZM593 377L595 375L596 376L595 378ZM440 316L442 327L454 365L455 366L471 361L456 341ZM422 312L422 318L425 332L437 365L440 370L447 368ZM382 300L385 305L385 303ZM403 291L395 298L389 308L387 302L388 307L386 309L380 305L371 305L378 308L380 311L376 311L375 313L366 316L354 328L355 343L360 369L373 405L388 430L402 444L416 452L412 453L399 446L378 427L362 403L348 376L350 393L358 414L361 417L357 412L352 400L349 387L350 381L376 425L388 438L398 446L395 447L388 443L373 428L375 431L373 432L370 426L369 430L362 419L376 442L393 456L407 462L402 463L391 459L385 455L385 460L371 497L371 501L376 507L391 515L398 521L401 527L398 530L388 529L388 527L391 527L380 519L380 514L390 519L398 527L392 520L376 512L390 535L420 567L446 601L451 603L459 603L475 596L496 581L528 554L550 533L564 516L565 518L558 528L535 553L514 581L500 595L507 613L514 627L525 641L534 663L550 631L581 589L579 586L579 574L591 534L596 504L598 481L596 466L592 463L587 463L593 464L597 470L598 480L596 498L594 498L590 482L584 469L587 484L587 504L585 504L581 475L571 502L565 513L563 514L562 513L569 499L574 484L577 463L559 411L562 437L562 481L559 513L557 519L556 487L551 455L533 442L521 429L525 448L524 469L520 486L516 494L513 494L518 482L519 453L511 423L502 404L497 397L494 404L485 416L491 423L498 428L509 432L511 434L510 435L498 431L482 419L463 429L448 434L447 433L449 431L473 420L467 423L462 423L455 417L453 411L443 416L427 433L426 421L430 413L438 406L451 400L429 407L423 412L420 417L417 413L419 413L426 405L433 401L447 397L463 397L452 378L401 406L394 408L390 407L386 401L387 397L389 398L390 402L392 396L401 388L437 371L431 359L423 336L419 318L419 307L414 296L410 295L396 304L395 303L400 295L404 291L406 291ZM559 560L560 561L560 566L556 580L556 585L552 604L551 629L547 636L546 635L546 621L553 588L555 572ZM430 561L431 560L432 561L431 562ZM559 560L560 559L561 560L560 561ZM429 559L430 557L435 557L436 558L444 557L445 558L442 560L439 560L434 563L432 563L431 562L433 560L430 560ZM463 535L462 537L451 537L450 538L442 538L433 540L426 543L418 549L414 545L415 543L422 540L436 536L449 535L450 534L462 534ZM558 528L559 530L523 613L523 623L540 648L534 660L527 644L514 627L500 596L516 579L537 551ZM558 528L559 527L560 528L559 529ZM566 512L567 513L567 515L565 517L564 515ZM411 507L410 509L400 510L399 511L397 510L398 508L400 508L401 507L405 507L406 506L410 506ZM579 483L580 484L580 488L579 489L578 495L576 498L576 500L573 506L567 513L566 511L572 500L573 496L575 494L577 486ZM580 480L581 481L581 483L580 484L579 483L579 481ZM415 453L416 452L417 453L416 454ZM370 432L371 431L372 432L371 433ZM442 418L443 417L444 418L443 419ZM443 417L445 415L447 416L445 418ZM446 415L447 414L448 415L447 416ZM421 396L422 397L420 399L422 400L418 405L419 409L418 412L415 413L412 410L411 405L409 402L419 396ZM348 381L349 380L350 381L349 382ZM374 313L375 315L371 328L370 341L369 342L369 352L368 353L368 375L369 376L370 389L372 394L371 397L366 387L361 372L355 343L354 329L365 317ZM375 306L376 305L378 306L377 307Z"/>
    <path fill="#b0b0b0" fill-rule="evenodd" d="M525 686L521 691L517 694L516 693L517 694L508 702L507 701L508 702L504 706L492 715L493 714L497 716L498 714L501 713L503 714L505 711L509 709L511 710L510 709L516 705L517 706L516 705L521 701L522 702L521 701L524 696ZM493 714L494 713L495 714L494 715ZM494 713L495 712L496 713L495 714ZM550 605L551 610L550 611L549 609L550 615L549 616L548 615L548 620L547 621L547 635L550 629L550 627L549 626L549 620L551 618L551 607ZM551 599L552 603L552 600ZM554 589L553 589L553 593L552 594L552 596L553 595L553 591ZM430 558L430 559L433 559L436 561L435 560L435 558ZM593 552L593 553L591 555L590 554L591 555L591 557L589 560L588 559L589 560L589 562L588 563L587 562L588 563L587 565L587 568L586 569L585 568L586 569L586 571L585 572L584 571L585 572L585 577L584 578L584 580L586 573L587 572L587 570L588 569L588 567L589 566L589 564L590 563L590 560L592 557L592 554ZM559 528L551 537L549 537L549 540L540 549L539 548L540 549L535 555L534 554L535 555L532 559L531 558L532 560L530 562L529 561L523 571L522 570L522 573L514 582L513 581L514 582L500 597L501 596L504 601L503 604L504 603L506 606L506 611L507 610L509 613L508 616L510 616L509 618L511 618L510 620L512 620L511 622L513 622L513 626L515 626L515 629L516 628L518 630L518 633L519 632L525 640L524 641L525 640L530 648L529 651L531 651L534 659L536 655L538 655L537 653L539 648L522 623L522 609L526 604L525 602L529 597L536 581L536 577L538 576L544 563L543 561L545 560L550 548L549 547L552 544L551 542L554 539L553 537L555 537L554 535L556 535L555 533ZM524 604L525 603L526 604L525 605ZM534 581L535 580L536 581L535 582ZM528 562L529 561L530 562L529 563ZM550 544L551 543L552 544L551 545ZM549 537L550 536L551 537L550 538ZM380 515L381 519L392 527L391 528L388 528L390 528L391 529L398 529L400 527L398 528L395 525L396 524L395 525L390 520L381 515L382 514ZM566 513L565 516L562 519L563 520L564 517L566 515ZM580 481L578 488L577 489L576 488L577 489L576 494L574 496L572 502L571 503L570 502L571 504L570 505L569 504L570 506L569 507L568 506L569 508L567 511L570 509L575 500L575 498L578 492ZM589 461L584 464L583 468L585 469L589 477L594 491L595 498L596 481L597 480L596 470L593 463L594 464L593 465L586 463L589 462ZM361 457L362 458L361 459L363 461L362 463L363 462L371 469L370 470L371 469L373 472L372 474L369 474L365 471L363 472L366 477L368 486L372 488L371 486L374 480L375 481L374 478L375 477L376 478L375 474L376 473L377 474L377 472L374 471L371 468L372 467L369 464L368 465L365 461L366 460L365 461ZM363 472L364 471L365 472L364 473ZM370 467L371 466L372 467L371 468ZM369 466L370 465L371 466L370 467ZM368 465L369 464L370 465L369 466ZM343 434L341 437L342 436L344 437L343 439L345 443L347 445L346 447L347 446L349 448L350 451L351 449L350 450L349 449L350 447L349 448L348 447L349 445L348 446L347 445L348 443L347 444L346 443L346 441L345 440L346 438L345 439L344 438ZM343 439L344 438L345 439L344 440ZM349 431L350 431L352 433L352 436L351 437L352 436L353 437L352 439L353 438L354 439L355 443L357 442L364 442L360 438L360 437L358 436L359 435L356 432L355 433L353 431L352 431L351 429L351 430ZM357 435L358 434L359 435L358 436ZM356 434L357 433L358 434L357 435ZM355 433L356 432L357 433L356 434ZM578 412L579 414L579 417L580 418L580 421L580 417L579 416L579 413ZM595 408L596 407L600 410L599 411L600 410L607 417L607 420L606 421L605 420L606 423L604 425L603 424L604 426L606 423L609 426L611 424L610 425L608 423L611 421L614 417L614 415L616 414L616 410L611 411L610 410L611 409L610 410L605 410L604 409L605 408L601 409L600 408L602 407L598 408L597 407L598 406ZM421 397L419 397L417 399L410 402L412 405L413 410L415 412L416 411L417 412L417 410L418 409L417 408L417 405L421 400L419 399ZM574 396L575 402L576 403L576 407L577 407L577 405L576 404L576 399L574 397ZM584 392L585 395L587 397L588 396L587 395L587 392L585 393ZM509 386L508 390L509 389L510 390L509 392L510 391L511 392L512 397L519 408L525 412L532 413L540 416L539 413L534 408L535 407L532 404L533 405L531 406L524 402L522 402L521 399L518 397ZM522 410L523 409L524 410L523 411ZM533 407L534 406L535 407L534 408ZM532 406L533 405L534 406L533 407ZM519 399L520 398L521 399L520 400ZM349 381L350 382L349 389L350 387L352 393L351 397L352 396L353 397L352 401L353 400L354 401L353 404L354 403L356 407L355 409L356 408L362 417L361 418L365 421L364 423L365 422L368 426L367 428L368 427L369 428L368 430L369 429L368 426L370 425L372 427L371 428L373 431L374 431L373 430L374 428L384 439L395 446L397 446L395 444L396 443L394 444L390 440L391 439L390 440L388 439L379 430L378 428L379 427L378 428L375 425L372 420L373 419L372 420L370 417L371 416L370 417L365 410L366 408L365 409L362 404L363 403L362 404L361 403L362 401L361 402L356 394L357 392L356 393L353 388L354 387L353 388L352 387L353 385L352 386L351 385L352 383L351 384ZM372 428L373 427L374 428L373 429ZM605 381L606 382L605 385L611 389L610 390L612 389L613 390L612 391L614 390L617 392L616 393L617 392L623 393L619 388L618 389L616 387L612 377L609 378L606 382ZM620 391L621 390L622 391L621 392ZM374 314L364 319L363 318L364 319L356 327L354 337L355 335L356 336L356 343L355 344L356 343L357 344L357 349L356 350L357 349L358 350L359 355L358 360L359 359L360 360L359 365L360 364L362 369L361 373L362 372L363 373L367 385L366 388L367 387L369 391L370 390L368 383L368 376L366 372L367 371L366 369L366 360L367 359L366 354L368 352L368 344L367 343L367 341L368 340L369 341L368 333L369 332L370 333L369 328L371 327L370 323L371 322L372 323L371 320L373 319ZM372 315L373 314L374 315L373 316Z"/>
    <path fill="#707070" fill-rule="evenodd" d="M456 296L457 302L458 301L457 300ZM442 298L442 299L448 305L449 305L458 315L460 316L453 308L454 306L459 312L456 307L453 304L454 303L454 301L452 298L452 295L450 295L449 296L448 295L448 297L447 298L448 300L447 301L445 299L444 300ZM451 306L452 305L453 306L452 307ZM450 305L451 304L452 305L451 306ZM452 303L453 302L454 303L453 304ZM451 301L452 300L453 302L452 303ZM444 300L445 299L446 300L445 301ZM450 295L451 296L451 298L449 299L448 298ZM467 288L466 290L467 292L471 294L472 296L471 297L470 296L478 303L477 302L478 301L476 299L474 295L472 294ZM472 295L473 294L474 295L473 296ZM469 293L470 292L471 293L470 294ZM468 292L469 291L470 292L469 293ZM482 284L482 285L484 286L483 288L490 293L486 289L484 285ZM484 288L485 287L486 288L485 289ZM483 287L484 286L485 287L484 288Z"/>
    <path fill="#4a4a4a" fill-rule="evenodd" d="M448 293L446 296L445 295L444 297L445 298L444 299L445 300L446 299L447 300L446 298L448 294L450 296L449 298L450 298L450 296L449 295L450 294L452 294L453 295L453 298L455 298L456 299L456 302L454 304L452 302L452 301L452 302L456 306L457 305L458 306L458 307L456 309L454 307L454 308L460 315L459 316L461 317L459 316L460 315L459 314L460 313L458 312L459 311L458 312L456 309L458 307L463 313L460 308L461 307L459 304L460 302L458 300L459 301L457 303L456 302L456 299L455 298L455 296L456 295L454 293L452 294L449 294ZM444 299L445 298L446 299L445 300ZM418 288L421 292L422 295L423 295L421 292L420 288L419 289ZM482 286L483 286L485 288L486 287L485 286L484 287ZM484 287L485 286L486 287L485 288ZM480 280L481 283L483 283Z"/>
    <path fill="#333333" fill-rule="evenodd" d="M739 531L745 537L745 538L751 544L751 545L768 562L751 545L751 544L747 540L747 539ZM629 487L629 492L628 493L629 496ZM327 467L327 470L329 473L329 476L332 482L331 481ZM338 414L338 418L339 419L339 422L340 423L339 424L340 423L339 421L340 420L339 419L339 416ZM575 349L586 359L578 350L577 351ZM577 351L578 350L579 351L578 352ZM462 308L461 308L462 310L460 312L463 309ZM466 303L467 308L471 315L471 317L473 321L471 317L471 315L468 310ZM461 302L460 304L461 303L464 306L464 307L464 304L462 302ZM655 298L657 300L662 310L662 308ZM422 296L429 311L430 309L431 310L433 317L429 301L428 301L428 304L427 305L425 302L425 300L423 296ZM429 306L430 307L430 309L429 310L428 309L428 307ZM427 305L428 304L429 306L428 307ZM461 288L461 291L462 292L463 296ZM430 287L435 295L438 298L440 302L442 303L441 304L443 307L442 306L442 303L438 299L438 298L439 297L443 301L439 297L441 295L444 296L445 294L446 295L446 294L448 292L449 293L448 292L447 293L443 293L439 295L439 297L438 298ZM422 287L423 288L424 292L425 291ZM539 286L552 298L553 298L564 309L552 297L551 297ZM399 264L400 264L408 273L408 274L413 280L414 283L417 286L417 287L419 288L418 289L419 288L418 284L416 282L415 283L413 281L412 278L408 274L408 273L404 269L404 268L400 264ZM486 250L508 272L508 273L512 277L512 278L517 283L517 284L535 305L522 290L522 289L509 274L509 273L495 259L495 258L494 258ZM480 249L490 260L497 271L504 279L504 280L511 289L514 295L528 315L529 318L533 323L529 318L528 315L524 310L523 307L518 301L517 298L515 296L505 280L501 276L501 275L495 268L490 260ZM403 215L404 216L403 217L405 220L404 216Z"/>
    <path fill="#242424" fill-rule="evenodd" d="M402 697L401 697L400 701ZM467 684L464 688L465 689L463 690L459 697L460 698L458 699L459 700L456 702L457 703L446 714L447 715L442 719L438 725L437 720L435 720L427 757L446 729L459 705L458 704L460 703L459 702L461 701L460 700L462 699L467 688L466 686L468 685ZM447 713L448 712L449 713L448 714ZM556 661L553 665L553 668L552 670L557 663ZM555 663L556 662L557 663L556 664ZM562 656L561 656L561 657L559 659L561 658ZM441 652L441 654L440 655L441 656L439 658L439 660L438 661L438 665L437 666L437 669L436 670L436 673L435 674L435 676L432 683L432 688L434 684L434 682L437 677L438 671L440 667L440 664L441 663L441 660L442 659L442 655L441 654ZM816 618L822 626L819 622L818 619ZM415 593L414 595L414 628L413 629L412 648L410 654L411 657L409 659L408 671L406 676L403 693L405 692L414 672L419 646L419 637L420 636L420 625L419 624L420 619L418 618L419 611L418 606L416 605L417 602L415 601L416 598L414 597ZM413 589L413 593L414 591ZM374 560L373 561L373 564L375 566L374 567L374 572L376 575L375 576L375 612L376 613L376 622L375 623L376 624L374 627L374 631L375 628L374 627L376 625L379 602L380 601L380 584L378 583L379 576L378 571L376 569L377 567L375 566L376 564L374 562L375 561ZM373 561L374 560L375 561L374 562ZM347 514L350 518L348 514ZM629 485L630 487L630 490L630 485ZM615 480L614 482L615 486L613 487L614 491L612 492L613 495L611 496L612 500L610 501L611 504L609 505L610 508L608 509L609 512L607 514L608 517L606 518L605 528L604 529L604 536L605 537L604 538L603 553L604 553L604 550L607 544L607 538L612 516L612 510L614 502L613 497L615 495ZM329 477L331 484L334 490L335 488L334 489L333 488L334 486L332 485L333 483L331 482L332 481L331 482L330 481L330 479L331 478L330 479ZM327 465L326 465L326 468ZM292 421L291 432L290 433L291 437L289 438L284 464L282 487L286 477L288 455L290 448L289 444L291 442L290 438L292 436L292 431L291 430L293 429ZM283 477L284 476L285 478L284 479ZM285 467L286 468L286 471L285 472L284 471L284 468ZM286 461L287 462L287 467L286 468L285 467L285 462ZM286 458L287 457L288 459L287 460ZM293 415L294 420L294 416ZM337 407L337 410L340 416L340 419L341 420L340 421L341 423L341 421L342 420L343 421L345 421L345 420L338 410ZM341 417L342 416L343 417L342 418ZM295 406L294 410L295 409ZM658 399L657 400L661 405L661 408L664 410L663 411L668 418L667 420L669 420L668 422L670 423L670 428L672 429L672 433L674 434L673 436L675 436L674 438L676 439L675 440L679 445L678 447L681 450L680 452L682 453L680 455L676 451L677 450L671 444L672 443L668 440L669 439L664 435L664 433L655 423L655 429L658 435L657 437L659 439L658 441L660 449L662 450L661 453L664 457L663 461L665 461L664 464L666 465L665 468L667 469L666 472L668 473L668 483L670 485L669 488L671 488L670 498L669 499L667 497L665 489L662 486L663 484L660 481L661 480L659 478L660 477L655 464L655 487L657 490L657 496L655 496L656 516L655 517L654 514L655 522L653 523L652 529L650 527L649 517L647 517L648 510L646 510L647 505L645 505L646 500L644 500L645 494L643 494L644 486L642 484L643 475L641 474L641 460L641 467L639 469L637 478L638 481L636 483L636 492L631 503L629 514L627 514L627 500L629 500L629 497L627 495L628 497L626 498L627 500L624 504L625 507L623 507L623 513L621 514L622 517L620 518L621 520L618 523L619 525L617 526L618 529L616 529L616 534L614 534L614 539L612 539L613 541L608 548L609 550L607 551L605 558L600 568L598 569L599 572L598 573L597 571L596 573L597 572L598 574L594 576L585 592L586 594L595 583L602 572L602 569L606 564L605 563L613 555L614 562L612 562L613 565L611 565L612 567L610 568L611 570L609 571L610 573L608 574L609 576L607 577L607 583L605 583L606 585L604 586L605 588L603 589L604 591L602 592L602 597L600 597L601 599L599 599L595 608L596 609L593 611L594 612L591 614L592 615L590 616L582 630L597 612L600 605L610 594L609 593L613 590L613 587L615 587L615 584L621 577L621 573L623 573L622 572L624 571L627 563L628 576L626 576L627 581L625 581L625 588L622 592L623 595L621 595L622 598L620 599L620 604L618 604L619 606L617 607L618 608L616 609L616 612L613 614L613 617L609 620L610 621L607 623L608 624L605 626L606 627L603 629L604 630L600 633L601 634L598 636L599 637L595 640L596 641L589 648L590 649L584 655L585 656L582 658L583 659L579 662L580 663L577 665L578 666L575 668L575 671L572 673L569 679L561 688L560 686L567 669L565 674L555 685L547 698L544 717L548 713L550 713L557 701L568 691L570 687L604 651L603 650L615 637L614 636L618 632L618 629L621 627L620 626L625 620L624 619L626 618L626 615L629 613L628 612L630 611L629 610L631 609L630 608L632 607L631 606L633 605L632 604L634 603L633 602L635 601L634 600L636 599L635 598L640 591L639 589L642 586L642 580L644 580L643 578L645 577L644 575L646 574L645 572L648 568L647 565L649 564L649 558L651 558L650 555L653 551L652 547L654 547L653 544L655 543L654 540L656 539L655 535L657 535L656 531L658 531L657 527L659 526L658 520L660 520L660 512L662 509L663 525L661 528L662 542L660 543L660 557L658 558L659 562L657 563L658 568L656 569L656 577L654 578L655 580L649 592L648 599L656 587L662 574L662 569L664 569L664 564L666 563L665 561L667 560L666 558L668 557L667 555L669 554L670 550L669 548L672 544L671 533L673 528L676 531L676 540L678 541L677 543L680 547L679 550L681 550L680 553L682 554L681 556L683 557L683 562L685 562L684 564L687 567L686 569L690 574L689 576L703 601L705 602L704 603L709 609L705 603L706 601L708 603L706 597L704 596L705 595L703 594L704 593L701 590L702 589L699 587L700 586L698 585L698 581L693 574L694 573L691 569L692 568L690 567L691 565L689 562L689 558L686 554L687 551L685 551L686 548L684 548L685 545L683 544L684 541L681 537L681 530L678 526L679 523L677 523L678 519L676 519L677 513L675 513L677 499L680 503L680 507L682 508L681 510L683 510L682 512L684 513L683 514L685 515L684 516L689 523L688 525L692 530L691 532L694 535L693 537L695 538L694 540L696 541L695 543L697 544L696 546L698 547L697 549L699 550L698 552L700 553L700 558L703 561L702 563L704 564L703 566L705 567L705 572L708 575L707 577L709 578L709 582L711 583L710 584L712 585L711 586L713 587L712 588L714 589L714 592L718 597L716 595L716 586L723 598L726 600L725 601L727 601L727 604L729 605L728 606L742 624L743 623L744 626L746 626L746 624L743 622L744 621L736 611L737 610L735 609L736 608L731 601L732 599L730 599L731 597L727 592L728 590L726 590L727 588L725 587L725 583L723 583L724 581L722 580L722 576L720 575L721 573L720 574L720 571L718 570L719 564L723 568L723 571L727 574L726 575L729 576L729 579L733 582L732 583L735 584L735 587L739 590L738 591L741 592L744 596L743 597L751 605L750 606L753 607L753 610L757 613L756 614L761 618L761 620L763 620L763 623L766 624L766 627L784 647L783 648L791 657L790 658L794 662L794 665L797 667L796 668L799 670L798 671L802 676L792 648L787 641L787 637L785 636L785 632L783 631L784 630L782 629L783 628L781 627L782 626L780 625L781 624L779 623L780 622L778 621L779 620L777 619L777 616L775 616L773 612L774 611L770 606L771 605L768 603L770 600L772 602L773 601L775 604L776 603L799 626L803 627L817 644L811 633L805 627L806 626L790 607L791 606L781 596L782 595L777 591L778 590L774 588L772 585L773 584L770 583L767 579L768 578L766 578L762 573L763 572L758 569L756 566L757 565L751 560L752 559L746 554L747 553L745 551L746 552L744 554L746 555L745 558L747 559L746 561L748 562L747 564L749 565L748 567L750 568L749 570L751 571L750 573L752 579L751 580L748 577L749 576L747 575L747 572L744 571L744 568L742 567L743 566L741 566L742 564L741 565L738 560L739 558L738 559L736 556L737 554L735 554L736 552L733 550L734 548L733 549L731 546L732 545L730 544L731 543L729 543L729 539L728 540L726 537L727 536L725 536L726 534L724 534L724 531L721 528L722 527L720 527L718 524L719 522L718 523L716 520L717 519L715 519L716 517L714 517L714 514L712 514L712 511L710 511L710 508L706 505L707 504L705 504L705 501L702 499L702 497L700 497L694 486L695 485L700 489L699 490L704 494L703 495L735 527L739 529L738 530L744 535L743 536L748 539L750 542L749 543L751 543L761 554L760 555L783 577L782 578L790 585L790 587L795 591L794 592L806 604L815 616L812 609L807 604L808 603L803 594L800 592L800 589L797 587L798 586L795 584L795 581L789 574L783 562L781 561L782 560L776 549L775 550L773 548L774 547L766 540L767 539L764 536L763 537L760 532L759 533L754 529L751 524L738 512L736 506L733 504L734 503L730 498L731 497L729 496L730 495L728 494L729 493L723 479L724 478L726 480L735 500L737 501L736 502L739 504L738 505L777 541L767 527L763 516L755 507L755 504L752 502L753 501L751 500L751 497L748 495L749 494L747 494L747 491L745 490L746 489L744 489L744 486L740 483L741 482L738 480L739 479L736 477L737 476L734 474L735 473L732 471L733 470L730 468L731 467L727 464L728 463L725 461L726 460L723 458L724 457L721 455L722 454L715 447L716 446L710 441L711 440L705 435L706 434L688 414L690 422L692 423L691 425L693 426L692 428L694 428L693 431L695 431L694 434L695 433L695 436L697 437L696 440L698 441L698 445L701 448L700 450L702 451L701 452L705 457L704 459L709 466L708 468L710 469L709 471L711 471L711 476L713 476L713 479L715 480L714 481L716 482L715 483L719 489L718 490L714 487L714 485L712 484L713 483L709 480L710 479L707 477L707 474L704 472L705 471L702 468L703 467L701 466L702 465L700 464L701 463L699 462L700 461L698 460L698 457L697 458L695 455L696 454L694 453L695 452L693 452L694 450L692 450L693 448L690 446L690 443L688 443L688 440L685 438L686 437L684 437L684 434L682 433L683 432L678 427L679 426L675 423L676 422L672 419L673 418L665 410L666 409L662 406L663 405ZM548 713L549 712L550 713L549 714ZM567 688L568 687L569 688L568 689ZM559 688L560 687L561 689L560 690ZM796 668L797 667L798 668L797 669ZM582 658L583 657L584 658L583 659ZM584 655L585 654L586 655L585 656ZM589 648L590 647L591 648L590 649ZM779 643L780 642L781 643L780 644ZM813 640L814 639L815 640L814 641ZM774 637L775 636L776 637L775 638ZM600 633L601 632L602 633L601 634ZM770 632L771 631L772 632L771 633ZM766 627L767 626L768 627L767 628ZM804 626L805 625L806 626L805 627ZM763 623L764 622L765 623L764 624ZM607 623L608 622L609 623L608 624ZM609 620L610 619L611 620L610 621ZM760 619L761 618L762 619L761 620ZM756 614L757 613L758 614L757 615ZM613 614L614 613L615 614L614 615ZM595 612L596 611L597 612L596 613ZM753 610L754 609L755 610L754 611ZM791 609L792 608L793 609L792 610ZM808 606L809 605L810 606L809 607ZM750 606L751 605L752 606L751 607ZM769 605L770 604L771 605L770 606ZM774 603L775 602L776 603L775 604ZM601 603L602 602L603 603L602 604ZM602 602L603 601L604 602L603 603ZM704 599L705 598L706 600L705 601ZM743 597L744 596L745 597L744 598ZM703 597L704 596L705 597L704 598ZM780 595L781 594L782 595L781 596ZM779 594L780 593L781 594L780 595ZM608 594L609 593L610 594L609 595ZM585 593L586 592L587 593L586 594ZM738 591L739 590L740 591L739 592ZM776 590L777 589L778 590L777 591ZM611 590L612 589L613 590L612 591ZM798 589L799 588L800 589L799 590ZM735 587L736 586L737 587L736 588ZM771 584L772 583L773 584L772 585ZM732 583L733 582L734 583L733 584ZM783 579L784 578L785 579L784 580ZM729 579L730 578L731 579L730 580ZM782 578L783 577L784 578L783 579ZM766 578L767 577L768 578L767 579ZM619 577L620 576L621 577L620 578ZM751 576L752 575L753 576L752 577ZM726 575L727 574L728 575L727 576ZM598 575L599 574L600 575L599 576ZM761 572L762 571L763 572L762 573ZM745 572L746 571L747 572L746 573ZM760 571L761 570L762 571L761 572ZM755 565L756 564L757 565L756 566ZM769 564L770 563L771 564L770 565ZM754 564L755 563L756 564L755 565ZM717 564L718 563L719 564L718 565ZM753 563L754 562L755 563L754 564ZM767 562L768 561L769 562L768 563ZM766 561L767 560L768 561L767 562ZM765 560L766 559L767 560L766 561ZM764 559L765 558L766 559L765 560ZM750 559L751 558L752 559L751 560ZM763 558L764 557L765 558L764 559ZM749 558L750 557L751 558L750 559ZM762 557L763 556L764 557L763 558ZM748 557L749 556L750 557L749 558ZM761 556L762 555L763 556L762 557ZM760 555L761 554L762 555L761 556ZM745 553L746 552L747 553L746 554ZM734 552L735 551L736 552L735 553ZM717 543L719 546L719 549L717 552L716 551L716 544ZM749 543L750 542L751 543L750 544ZM765 539L766 538L767 539L766 540ZM764 538L765 537L766 538L765 539ZM763 537L764 536L765 537L764 538ZM743 536L744 535L745 536L744 537ZM759 533L760 532L761 533L760 534ZM734 526L735 525L736 526L735 527ZM733 525L734 524L735 525L734 526ZM732 524L733 523L734 524L733 525ZM731 523L732 522L733 523L732 524ZM755 522L756 521L757 522L756 523ZM730 522L731 521L732 522L731 523ZM754 521L755 520L756 521L755 522ZM729 521L730 520L731 521L730 522ZM753 520L754 519L755 520L754 521ZM745 520L746 519L747 520L746 521ZM728 520L729 519L730 520L729 521ZM752 519L753 518L754 519L753 520ZM727 519L728 518L729 519L728 520ZM726 518L727 517L728 518L727 519ZM725 517L726 516L727 517L726 518ZM724 516L725 515L726 516L725 517ZM723 515L724 514L725 515L724 516ZM757 510L758 509L759 510L758 511ZM708 508L709 507L710 508L709 509ZM714 506L715 505L716 506L715 507ZM713 505L714 504L715 505L714 506ZM753 504L754 503L755 504L754 505ZM712 504L713 503L714 504L713 505ZM711 503L712 502L713 503L712 504ZM710 502L711 501L712 502L711 503ZM709 501L710 500L711 501L710 502ZM703 501L704 500L705 501L704 502ZM708 500L709 499L710 500L709 501ZM707 499L708 498L709 499L708 500ZM706 498L707 497L708 498L707 499ZM701 498L702 497L703 498L702 499ZM705 497L706 496L707 497L706 498ZM704 496L705 495L706 496L705 497ZM703 495L704 494L705 495L704 496ZM697 493L698 492L699 493L698 494ZM718 490L719 489L720 490L719 491ZM699 490L700 489L701 490L700 491ZM693 485L694 484L695 485L694 486ZM655 482L656 481L657 482L656 483ZM722 478L723 477L724 478L723 479ZM729 467L730 466L731 467L730 468ZM640 464L641 463L642 464L641 465ZM672 460L676 467L675 469L673 467L671 463L671 461ZM717 450L718 449L719 450L718 451ZM691 448L692 447L693 448L692 449ZM714 446L715 445L716 446L715 447ZM713 445L714 444L715 445L714 446ZM709 440L710 439L711 440L710 441ZM704 434L705 433L706 434L705 435ZM703 433L704 432L705 433L704 434ZM662 433L663 432L664 433L663 434ZM681 432L682 431L683 432L682 433ZM698 427L699 426L700 427L699 428ZM677 426L678 425L679 426L678 427ZM674 422L675 421L676 422L675 423ZM668 414L669 413L670 414L669 415ZM664 409L665 408L666 409L665 410ZM660 406L661 405L662 406L661 407ZM661 405L662 404L663 405L662 406ZM658 401L659 400L660 401L659 402ZM657 400L658 399L659 400L658 401ZM654 394L654 395L656 396ZM587 373L587 374L589 375ZM553 356L551 357L556 367L559 369L558 371L563 380L564 386L564 381L563 380L563 377L560 372L560 370L556 362L554 361L555 360L553 359L554 358L552 357ZM558 370L559 369L560 371L559 372ZM581 353L582 354L581 355L583 357L584 356L587 359L587 360L587 359ZM582 356L583 355L584 356L583 357ZM581 355L582 354L583 355L582 356ZM682 323L687 328L686 329L689 334L697 341L698 344L707 353L706 352L708 351L711 355L710 352L701 342L702 341L706 342L712 348L711 350L712 352L719 357L717 353L705 341L695 335L694 336ZM711 350L712 349L713 350L712 351ZM698 344L699 343L700 344L699 345ZM688 331L689 330L690 331L689 332ZM687 330L688 329L689 330L688 331ZM686 329L687 328L688 329L687 330ZM663 309L662 311L665 314L664 315L666 316L666 319L669 322L668 323L670 323L670 327L672 327L671 329L674 332L673 334L675 334L674 336L676 336L675 338L678 341L677 343L678 342L678 345L680 345L680 350L682 350L681 352L683 352L682 354L685 357L684 359L686 359L685 361L687 362L686 363L688 364L687 365L692 372L691 374L693 378L696 380L695 381L697 381L700 390L708 399L707 400L709 400L711 403L710 404L712 404L714 407L713 408L718 412L717 413L737 434L734 428L731 426L732 425L727 415L728 414L724 410L725 409L717 393L714 391L715 390L713 389L714 388L712 387L713 386L711 385L711 382L706 376L707 375L705 374L706 373L704 372L705 371L703 370L704 369L702 368L703 367L701 366L701 363L698 361L699 360L697 359L697 356L691 349L692 348L689 346L689 343L685 340L686 339L680 332L681 331L670 319L671 318L667 316ZM717 413L718 412L719 413L718 414ZM713 408L714 407L715 408L714 409ZM704 396L705 395L706 396L705 397ZM692 376L693 375L694 376L693 377ZM691 374L692 373L693 374L692 375ZM699 363L700 362L701 363L700 364ZM692 351L693 350L694 351L693 352ZM687 343L688 342L689 343L688 344ZM683 337L684 336L685 337L684 338ZM679 331L680 330L681 331L680 332ZM673 323L674 322L675 323L674 324ZM672 322L673 321L674 322L673 323ZM669 318L670 317L671 318L670 319ZM668 317L669 316L670 317L669 318ZM663 311L664 310L665 311L664 312ZM441 296L443 298L443 297ZM424 296L426 300L426 302L429 307L429 309L428 310L429 309L430 310L429 312L435 324L435 326L437 329L438 334L440 336L439 337L440 338L440 336L438 333L438 331L435 324L434 318L432 317L433 314L432 316L431 315L429 307L427 304L427 300L425 298L425 296ZM333 254L327 259L331 257L333 255ZM431 206L430 205L427 208L428 208L429 206L430 207ZM429 206L430 205L431 206L430 207ZM565 202L566 204L570 206L569 206ZM561 199L560 200L563 202ZM560 200L561 199L562 200L561 201ZM264 342L266 342L268 338L290 316L290 314L305 298L306 301L304 304L305 305L303 306L304 308L302 309L303 311L301 311L301 314L300 313L300 319L298 319L299 321L297 322L298 324L296 325L296 330L294 331L294 335L292 336L289 343L290 344L288 345L284 357L285 358L283 360L280 369L281 370L276 381L277 384L275 385L276 387L274 388L271 396L273 396L291 357L290 355L292 354L291 351L294 347L294 340L296 339L296 335L300 327L299 326L301 325L300 324L302 323L301 322L303 321L303 318L308 312L309 315L306 334L307 339L305 340L306 345L304 345L304 366L313 416L315 416L314 419L315 416L314 410L312 409L313 405L310 396L311 392L309 389L310 384L308 381L309 371L307 369L307 346L309 341L308 328L310 321L309 317L311 317L311 310L313 309L313 305L317 300L316 298L318 298L317 297L323 289L323 286L329 280L328 279L330 276L331 277L330 276L334 272L333 271L340 264L340 261L344 258L346 260L344 261L345 262L343 263L341 267L342 268L338 273L339 275L335 280L336 282L332 287L333 289L330 292L331 294L328 298L329 301L327 301L327 307L325 308L325 315L323 315L323 325L321 326L322 332L320 333L320 378L321 375L321 385L323 386L322 392L324 394L323 398L325 398L324 403L326 403L325 408L327 409L327 416L330 420L329 422L335 435L330 415L330 409L328 407L329 402L327 400L327 378L327 380L325 380L325 372L327 366L328 371L330 372L329 376L331 376L331 385L333 385L332 388L334 389L333 391L336 394L335 395L337 396L337 399L340 401L340 404L352 421L366 436L365 433L361 429L359 429L360 427L354 422L354 417L358 422L351 413L347 400L345 399L346 398L344 398L345 395L342 392L343 389L340 385L341 382L339 382L339 373L337 373L338 367L336 367L337 359L336 361L335 360L335 317L336 316L338 320L338 327L340 328L339 332L341 332L340 337L342 337L342 344L344 344L344 351L346 351L345 354L349 365L353 370L350 364L349 355L347 354L347 341L345 340L345 301L347 300L347 287L349 286L348 282L350 282L349 280L351 278L350 276L352 275L351 273L353 273L352 271L354 271L353 269L357 265L356 264L359 261L360 262L364 260L366 262L369 261L369 263L373 263L380 271L381 270L383 272L382 273L386 277L386 271L388 266L392 262L397 262L398 264L400 263L403 268L405 268L407 271L406 272L409 273L409 276L413 278L413 282L416 281L419 285L421 285L420 287L423 287L421 289L425 287L428 293L427 287L428 286L432 288L432 291L433 290L435 292L434 294L435 293L437 295L437 298L438 297L440 300L439 301L440 300L443 303L443 308L445 309L444 310L446 311L446 314L448 314L447 316L450 318L449 319L451 319L451 322L457 328L456 329L459 331L458 332L461 334L460 335L465 340L464 341L473 351L472 352L476 355L475 356L478 358L477 359L480 361L479 362L482 364L481 365L485 368L484 369L487 371L486 372L504 396L496 380L488 356L486 355L486 350L484 350L484 345L482 345L482 340L481 341L481 338L479 338L479 333L477 333L478 331L476 331L477 329L474 326L475 324L473 324L473 319L472 320L472 317L470 317L471 314L469 314L470 312L469 313L469 310L468 311L466 308L464 296L462 296L460 288L464 284L468 287L471 287L476 294L476 297L478 297L478 300L479 299L483 303L483 309L480 308L477 303L479 305L478 306L473 302L474 301L473 302L469 299L472 304L474 304L474 307L476 307L475 309L477 309L476 311L478 311L477 313L479 313L478 315L480 315L480 319L482 319L481 321L483 321L482 323L484 323L483 325L485 325L484 327L486 327L485 329L487 329L486 331L488 331L487 333L489 334L488 335L490 335L489 337L491 337L490 339L492 339L491 341L493 341L495 345L494 346L496 347L495 348L497 348L496 350L498 350L498 353L500 353L500 356L502 357L501 358L503 359L504 363L523 387L525 386L528 389L530 394L528 383L526 383L527 380L525 379L526 376L524 375L525 373L522 370L523 368L521 367L522 365L519 362L519 357L517 357L517 349L518 348L521 350L521 352L524 354L523 355L525 355L524 357L525 356L527 359L526 361L528 361L527 363L530 366L529 368L532 371L531 373L533 373L532 375L535 379L534 381L537 385L536 388L538 388L537 391L539 392L538 394L544 414L552 435L552 444L557 459L557 464L556 448L548 419L546 397L544 394L544 380L547 385L554 408L555 403L554 398L552 397L553 392L551 391L552 387L550 387L551 382L549 381L550 377L548 377L549 373L547 373L548 369L546 369L547 366L545 365L546 363L543 359L543 352L541 351L542 349L540 348L540 343L538 343L539 341L537 340L537 336L535 335L537 332L541 337L540 338L542 339L542 342L547 347L547 350L550 352L550 355L552 354L546 346L547 345L545 344L545 341L543 341L544 339L540 335L541 334L539 334L539 331L537 331L537 328L536 329L534 327L535 325L531 322L532 321L530 321L531 319L528 318L529 316L527 316L527 313L526 314L524 311L525 310L523 310L524 308L523 309L521 307L522 305L521 306L519 304L519 301L517 301L518 299L517 300L515 298L516 296L515 297L513 295L514 293L513 294L511 291L512 290L511 291L509 288L510 287L509 288L507 286L508 284L507 285L502 278L503 277L500 276L500 273L496 271L497 269L494 268L494 265L493 266L491 263L492 262L489 261L487 258L488 257L484 255L484 252L478 246L481 245L489 254L490 253L496 258L507 272L508 271L512 276L511 277L512 276L515 279L515 282L519 284L519 287L523 289L525 292L524 293L528 295L528 298L532 300L535 304L534 305L545 316L544 317L548 319L550 322L549 323L575 350L579 350L573 345L574 344L569 340L570 339L567 337L568 336L558 325L559 324L554 319L554 316L551 314L552 313L550 313L550 310L548 309L549 308L547 308L547 305L545 305L545 302L543 302L543 299L542 300L540 297L541 296L540 297L538 294L539 293L537 293L537 290L535 290L533 287L534 286L530 284L530 281L528 279L529 278L539 287L540 286L543 288L546 293L547 292L554 298L553 299L559 305L560 304L566 311L567 310L571 316L572 315L585 329L586 328L595 338L596 337L600 342L601 341L609 350L610 349L617 356L629 361L643 374L651 378L652 377L659 382L661 381L662 383L663 382L664 384L665 383L666 385L667 384L668 386L669 385L670 387L671 386L672 388L673 387L674 389L677 389L677 391L680 391L680 393L681 392L690 400L691 399L694 403L695 402L699 407L700 406L723 429L715 418L711 415L712 414L709 412L710 411L707 409L708 408L705 406L706 405L702 401L703 400L701 399L702 398L697 391L698 390L695 388L695 385L690 380L691 379L687 375L687 372L685 372L683 368L684 367L682 366L683 365L682 366L680 363L681 362L679 362L680 360L679 361L677 358L678 357L676 357L677 355L675 355L675 352L673 351L674 350L670 346L671 345L670 346L668 343L669 342L667 342L667 339L665 338L666 337L664 337L664 334L661 331L662 330L661 331L659 328L660 327L658 326L659 325L657 325L658 323L655 321L656 320L654 320L654 317L648 310L649 309L647 309L648 307L645 306L645 303L644 304L642 301L643 300L639 297L640 296L637 294L638 293L634 290L635 289L632 287L633 286L631 286L631 283L628 281L629 280L627 280L625 277L626 276L624 276L624 273L621 271L622 270L618 267L619 266L615 263L616 262L613 259L615 257L628 271L629 270L632 273L631 274L653 295L656 300L651 291L648 289L649 288L638 276L639 275L635 272L636 271L631 267L632 266L627 262L628 261L623 257L624 256L601 233L600 234L591 225L588 225L588 223L587 224L584 220L583 221L572 211L571 212L569 209L566 209L560 203L558 204L558 202L555 202L553 199L552 200L551 198L550 199L546 197L546 195L545 196L544 194L543 195L542 193L541 194L540 192L539 193L538 191L537 192L536 190L529 187L535 186L540 190L545 192L546 191L549 194L550 193L552 196L556 198L557 197L558 199L559 198L554 193L553 194L551 191L548 191L546 188L545 189L544 187L543 188L536 183L534 184L531 181L529 182L528 180L527 181L526 179L522 178L520 179L519 177L516 178L515 176L510 177L510 175L506 176L504 174L492 174L488 176L482 175L482 177L477 176L481 177L481 179L487 178L487 180L490 179L491 181L493 180L494 182L496 181L499 184L503 184L510 190L507 192L505 191L506 190L501 191L500 189L487 189L487 187L467 187L466 189L462 188L458 191L455 190L455 192L453 191L448 195L447 194L446 196L445 195L444 197L441 197L439 200L432 204L433 205L440 202L456 201L457 203L460 202L461 204L466 204L466 206L468 205L469 207L470 206L471 208L472 207L473 209L474 208L475 210L476 209L477 211L480 211L482 214L483 213L484 215L487 215L489 219L490 218L494 223L495 222L500 226L499 230L495 230L495 228L494 229L487 224L485 225L485 223L482 223L483 222L480 223L480 221L477 222L476 220L474 221L471 218L468 219L467 217L464 218L462 216L459 217L456 215L438 215L437 217L432 216L428 219L427 218L425 220L422 220L420 223L425 222L426 220L434 220L435 222L438 221L440 223L442 222L443 224L445 223L446 225L447 224L448 226L451 226L453 229L456 229L459 233L460 232L463 234L463 236L469 240L468 241L470 242L468 244L465 244L465 242L463 243L463 241L461 242L460 240L458 241L458 239L455 240L455 238L448 238L448 236L443 237L443 235L419 235L417 237L415 236L415 238L410 238L410 240L408 239L405 241L405 243L402 243L407 242L408 244L410 244L419 252L419 256L416 254L411 254L411 252L408 252L409 251L405 252L405 250L397 250L396 252L394 251L393 253L389 253L386 257L387 258L384 260L381 257L381 253L374 246L373 247L372 245L369 245L369 243L366 244L366 242L363 243L362 241L354 242L353 241L355 240L353 240L351 242L350 240L346 240L345 239L348 236L349 237L350 235L354 235L357 232L360 233L362 231L369 231L370 233L374 232L377 235L381 235L381 237L382 236L390 245L392 243L392 233L389 229L390 228L388 227L389 226L386 224L387 223L385 221L384 222L381 218L380 219L373 214L371 215L371 213L367 214L367 212L364 213L362 211L357 210L362 207L366 207L369 205L383 205L384 207L388 206L388 208L391 207L391 209L392 208L396 212L397 211L403 218L403 214L397 208L400 206L401 208L402 207L406 210L414 220L417 217L416 216L420 213L419 212L422 209L417 203L418 202L416 201L417 200L415 199L416 198L407 188L391 182L392 183L390 184L396 185L404 191L401 197L399 196L400 195L388 195L387 197L383 196L382 198L379 197L378 199L371 199L371 201L368 200L367 202L362 202L362 204L359 203L359 205L357 204L356 206L354 205L353 207L351 206L350 208L348 207L343 211L339 211L338 213L337 212L336 214L335 213L331 215L329 218L328 217L327 219L324 219L319 224L316 224L307 233L306 232L307 233L297 242L321 226L333 220L359 216L365 218L361 221L359 220L359 222L354 222L354 224L349 224L349 226L347 225L347 227L344 227L337 233L336 232L336 234L333 234L321 246L319 246L307 259L308 260L295 274L289 284L297 274L300 273L317 257L318 258L320 255L323 255L327 251L329 252L328 251L331 249L333 250L340 244L343 246L335 253L335 258L334 257L332 260L331 259L329 262L328 261L328 263L325 263L320 269L319 268L311 276L312 277L303 285L304 286L299 290L300 291L295 295L296 296L291 300L292 301L286 307L287 308L284 310L285 311L281 314L282 315L279 317L280 318L273 326ZM352 420L353 419L354 420L353 421ZM546 418L547 417L548 418L547 419ZM710 417L711 416L712 417L711 418ZM709 416L710 415L711 416L710 417ZM708 415L709 414L710 415L709 416ZM707 414L708 413L709 414L708 415ZM698 406L699 405L700 406L699 407ZM693 402L694 401L695 402L694 403ZM689 399L690 398L691 399L690 400ZM337 399L338 398L339 399L338 400ZM682 394L683 393L684 394L683 395ZM486 372L487 371L488 372L487 373ZM660 368L661 367L662 368L661 369ZM659 367L660 366L661 367L660 368ZM646 367L647 366L648 367L647 368ZM643 365L644 364L645 365L644 366ZM481 365L482 364L483 365L482 366ZM656 363L657 362L658 363L657 364ZM640 363L641 362L642 363L641 364ZM479 362L480 361L481 362L480 363ZM652 358L653 357L654 358L653 359ZM631 356L632 355L633 356L632 357ZM649 354L650 353L651 354L650 355ZM521 352L522 351L523 352L522 353ZM472 352L473 351L474 352L473 353ZM625 351L626 350L627 351L626 352ZM577 350L578 349L579 350L578 351ZM547 350L548 349L549 350L548 351ZM574 349L575 348L576 349L575 350ZM519 349L520 348L521 349L520 350ZM645 348L646 347L647 348L646 349ZM516 348L517 347L518 348L517 349ZM572 347L573 346L574 347L573 348ZM571 346L572 345L573 346L572 347ZM643 345L644 344L645 345L644 346ZM636 345L637 344L638 345L637 346ZM618 345L619 344L620 345L619 346ZM635 344L636 343L637 344L636 345ZM617 344L618 343L619 344L618 345ZM572 344L573 343L574 344L573 345ZM616 343L617 342L618 343L617 344ZM641 342L642 341L643 342L642 343ZM635 342L636 341L637 342L636 343ZM615 342L616 341L617 342L616 343ZM640 341L641 340L642 341L641 342ZM614 341L615 340L616 341L615 342ZM599 341L600 340L601 341L600 342ZM630 340L631 339L632 340L631 341ZM613 340L614 339L615 340L614 341ZM564 340L565 339L566 340L565 341ZM629 339L630 338L631 339L630 340ZM612 339L613 338L614 339L613 340ZM563 339L564 338L565 339L564 340ZM611 338L612 337L613 338L612 339ZM637 337L638 336L639 337L638 338ZM610 337L611 336L612 337L611 338ZM594 337L595 336L596 337L595 338ZM636 336L637 335L638 336L637 337ZM625 336L626 335L627 336L626 337ZM609 336L610 335L611 336L610 337ZM593 336L594 335L595 336L594 337ZM635 335L636 334L637 335L636 336ZM624 335L625 334L626 335L625 336ZM608 335L609 334L610 335L609 336ZM460 335L461 334L462 335L461 336ZM623 334L624 333L625 334L624 335ZM607 334L608 333L609 334L608 335ZM306 334L307 333L308 334L307 335ZM629 333L630 332L631 333L630 334ZM606 333L607 332L608 333L607 334ZM558 333L559 332L560 333L559 334ZM605 332L606 331L607 332L606 333ZM557 332L558 331L559 332L558 333ZM458 332L459 331L460 332L459 333ZM604 331L605 330L606 331L605 332ZM556 331L557 330L558 331L557 332ZM631 330L632 329L633 330L632 331ZM603 330L604 329L605 330L604 331ZM555 330L556 329L557 330L556 331ZM297 330L298 329L299 330L298 331ZM602 329L603 328L604 329L603 330ZM456 329L457 328L458 329L457 330ZM616 328L617 327L618 328L617 329ZM601 328L602 327L603 328L602 329ZM584 328L585 327L586 328L585 329ZM560 328L561 327L562 328L561 329ZM615 327L616 326L617 327L616 328ZM583 327L584 326L585 327L584 328ZM559 327L560 326L561 327L560 328ZM628 326L629 325L630 326L629 327ZM624 326L625 325L626 326L625 327ZM614 326L615 325L616 326L615 327ZM582 326L583 325L584 326L583 327ZM613 325L614 324L615 325L614 326ZM581 325L582 324L583 325L582 326ZM551 325L552 324L553 325L552 326ZM533 325L534 324L535 325L534 326ZM453 325L454 324L455 325L454 326ZM612 324L613 323L614 324L613 325ZM580 324L581 323L582 324L581 325ZM557 324L558 323L559 324L558 325ZM550 324L551 323L552 324L551 325ZM656 323L657 322L658 323L657 324ZM579 323L580 322L581 323L580 324ZM549 323L550 322L551 323L550 324ZM451 322L452 321L453 322L452 323ZM344 322L345 321L346 322L345 323ZM593 319L594 318L595 319L594 320ZM529 319L530 318L531 319L530 320ZM285 319L286 318L287 319L286 320ZM592 318L593 317L594 318L593 319ZM545 318L546 317L547 318L546 319ZM591 317L592 316L593 317L592 318ZM544 317L545 316L546 317L545 318ZM287 317L288 316L289 317L288 318ZM590 316L591 315L592 316L591 317ZM552 316L553 315L554 316L553 317ZM465 316L466 315L467 316L466 317ZM304 316L305 315L306 316L305 317ZM589 315L590 314L591 315L590 316ZM570 315L571 314L572 315L571 316ZM464 315L465 314L466 315L465 316ZM588 314L589 313L590 314L589 315ZM569 314L570 313L571 314L570 315ZM305 314L306 313L307 314L306 315ZM600 313L601 312L602 313L601 314ZM587 313L588 312L589 313L588 314ZM568 313L569 312L570 313L569 314ZM649 312L650 311L651 312L650 313ZM599 312L600 311L601 312L600 313ZM586 312L587 311L588 312L587 313ZM540 312L541 311L542 312L541 313ZM451 312L452 311L453 312L452 313ZM447 312L448 311L449 312L448 313ZM598 311L599 310L600 311L599 312ZM585 311L586 310L587 311L586 312ZM539 311L540 310L541 311L540 312ZM450 311L451 310L452 311L451 312ZM308 311L309 310L310 312L309 313ZM597 310L598 309L599 310L598 311ZM449 310L450 309L451 310L450 311ZM309 310L310 309L311 310L310 311ZM596 309L597 308L598 309L597 310ZM595 308L596 307L597 308L596 309ZM646 307L647 306L648 307L647 308ZM594 307L595 306L596 307L595 308ZM593 306L594 305L595 306L594 307ZM592 305L593 304L594 305L593 306ZM534 305L535 304L536 305L535 306ZM591 304L592 303L593 304L592 305ZM579 304L580 303L581 304L580 305ZM558 304L559 303L560 304L559 305ZM482 304L483 303L484 304L483 305ZM578 303L579 302L580 303L579 304ZM557 303L558 302L559 303L558 304ZM577 302L578 301L579 302L578 303ZM556 302L557 301L558 302L557 303ZM300 302L301 301L302 302L301 303ZM576 301L577 300L578 301L577 302ZM555 301L556 300L557 301L556 302ZM575 300L576 299L577 300L576 301ZM554 300L555 299L556 300L555 301ZM315 300L316 299L317 300L316 301ZM291 300L292 299L293 300L292 301ZM553 299L554 298L555 299L554 300ZM529 299L530 298L531 299L530 300ZM463 299L464 298L465 299L464 300ZM654 298L655 297L656 298L655 299ZM528 298L529 297L530 298L529 299ZM581 295L582 294L583 295L582 296ZM295 295L296 294L297 295L296 296ZM580 294L581 293L582 294L581 295ZM636 293L637 292L638 293L637 294ZM579 293L580 292L581 293L580 294ZM524 293L525 292L526 293L525 294ZM456 293L457 292L458 293L457 294ZM545 292L546 291L547 292L546 293ZM439 294L448 291L450 293L454 292L459 294L458 296L460 299L459 300L462 301L465 304L464 308L462 307L463 306L461 304L463 306L462 307L464 309L463 311L465 313L464 315L461 313L463 318L462 320L459 317L458 318L455 315L456 314L454 315L448 306L447 307L439 299L438 297ZM346 292L347 291L348 292L347 293ZM544 291L545 290L546 291L545 292ZM450 291L451 290L452 291L451 292ZM535 290L536 289L537 290L536 291ZM299 290L300 289L301 290L300 291ZM448 289L449 288L451 290L449 291ZM321 289L322 288L323 289L322 290ZM647 288L648 287L649 288L648 289ZM645 288L646 287L647 288L646 289ZM520 288L521 287L522 288L521 289ZM479 288L480 287L481 288L480 289ZM447 288L448 287L449 288L448 289ZM644 287L645 286L646 287L645 288ZM519 287L520 286L521 287L520 288ZM429 287L430 286L431 287L430 288ZM423 287L424 286L425 287L424 288ZM643 286L644 285L645 286L644 287ZM538 286L539 285L540 286L539 287ZM532 286L533 285L534 286L533 287ZM642 285L643 284L644 285L643 286ZM570 285L571 284L572 285L571 286ZM531 285L532 284L533 285L532 286ZM303 285L304 284L305 285L304 286ZM569 284L570 283L571 284L570 285ZM304 284L305 283L306 284L305 285ZM629 283L630 282L631 283L630 284ZM568 283L569 282L570 283L569 284ZM567 282L568 281L569 282L568 283ZM533 282L534 281L535 282L534 283ZM515 282L516 281L517 282L516 283ZM462 282L463 281L464 282L463 283ZM289 282L290 281L291 282L290 283ZM566 281L567 280L568 281L567 282ZM528 281L529 280L530 281L529 282ZM641 280L642 279L643 280L642 281ZM565 280L566 279L567 280L566 281ZM483 280L484 279L485 280L484 281ZM327 280L328 279L329 280L328 281ZM564 279L565 278L566 279L565 280ZM478 279L480 278L482 280L482 281L486 284L485 285L486 284L487 285L488 289L489 289L491 291L491 292L495 295L494 296L490 294L489 295L484 291L483 291L482 290L483 289L482 290L480 287L481 285ZM635 278L636 277L637 278L636 279ZM563 278L564 277L565 278L564 279ZM634 277L635 276L636 277L635 278ZM562 277L563 276L564 277L563 278ZM501 277L502 276L503 277L502 278ZM633 276L634 275L635 276L634 277ZM409 276L410 275L411 276L410 277ZM311 276L312 275L313 276L312 277ZM637 275L638 274L639 275L638 276ZM632 275L633 274L634 275L633 276ZM312 275L313 274L314 275L313 276ZM631 274L632 273L633 274L632 275ZM622 273L623 272L624 273L623 274ZM498 273L499 272L500 273L499 274ZM314 273L315 272L316 273L315 274ZM406 272L407 271L408 272L407 273ZM315 272L316 271L317 272L316 273ZM506 271L507 270L508 271L507 272ZM316 271L317 270L318 271L317 272ZM627 270L628 269L629 270L628 271ZM620 270L621 269L622 270L621 271ZM505 270L506 269L507 270L506 271ZM379 270L380 269L381 270L380 271ZM317 270L318 269L319 270L318 271ZM626 269L627 268L628 269L627 270ZM504 269L505 268L506 269L505 270ZM495 269L496 268L497 269L496 270ZM378 269L379 268L380 269L379 270ZM318 269L319 268L320 269L319 270ZM299 269L300 268L301 269L300 270ZM625 268L626 267L627 268L626 269ZM552 268L553 267L554 268L553 269ZM503 268L504 267L505 268L504 269ZM377 268L378 267L379 268L378 269ZM624 267L625 266L626 267L625 268ZM551 267L552 266L553 267L552 268ZM502 267L503 266L504 267L503 268ZM402 267L403 266L404 267L403 268ZM376 267L377 266L378 267L377 268ZM630 266L631 265L632 266L631 267ZM623 266L624 265L625 266L624 267ZM617 266L618 265L619 266L618 267ZM550 266L551 265L552 266L551 267ZM401 266L402 265L403 266L402 267ZM375 266L376 265L377 266L376 267ZM622 265L623 264L624 265L623 266ZM549 265L550 264L551 265L550 266ZM400 265L401 264L402 265L401 266ZM307 265L308 264L309 265L308 266ZM621 264L622 263L623 264L622 265ZM338 264L339 263L340 264L339 265ZM324 264L325 263L326 264L325 265ZM303 264L304 263L305 264L304 265ZM614 262L615 261L616 262L615 263ZM490 262L491 261L492 262L491 263ZM626 261L627 260L628 261L627 262ZM613 261L614 260L615 261L614 262ZM543 260L544 259L545 260L544 261ZM330 260L331 259L332 260L331 261ZM534 259L535 258L536 259L535 260ZM612 258L613 257L614 258L613 259ZM533 258L534 257L535 258L534 259ZM344 258L345 257L346 258L345 259ZM333 258L334 257L335 258L334 259ZM613 257L614 256L615 257L614 258ZM611 257L612 256L613 257L612 258ZM532 257L533 256L534 257L533 258ZM486 257L487 256L488 257L487 258ZM386 257L387 256L388 257L387 258ZM317 257L318 256L319 257L318 258ZM622 256L623 255L624 256L623 257ZM538 256L539 255L540 256L539 257ZM531 256L532 255L533 256L532 257ZM485 256L486 255L487 256L486 257ZM387 256L388 255L389 256L388 257ZM537 255L538 254L539 255L538 256ZM488 253L489 252L490 253L489 254ZM418 253L419 252L420 253L419 254ZM526 252L527 251L528 252L527 253ZM487 252L488 251L489 252L488 253ZM482 252L483 251L484 252L483 253ZM313 252L314 251L315 252L314 253ZM486 251L487 250L488 251L487 252ZM481 251L482 250L483 251L482 252ZM314 251L315 250L316 251L315 252ZM485 250L486 249L487 250L486 251ZM480 250L481 249L482 250L481 251ZM315 250L316 249L317 250L316 251ZM529 249L530 248L531 249L530 250ZM522 249L523 248L524 249L523 250ZM479 249L480 248L481 249L480 250ZM415 249L416 248L417 249L416 250ZM332 249L333 248L334 249L333 250ZM316 249L317 248L318 249L317 250ZM414 248L415 247L416 248L415 249ZM317 248L318 247L319 248L318 249ZM373 247L374 246L375 247L374 248ZM517 245L518 244L519 245L518 246ZM468 244L469 243L470 244L469 245ZM466 244L467 243L468 244L467 245ZM520 243L521 242L522 243L521 244ZM513 240L517 239L517 241L518 240L521 244L523 243L523 245L524 244L527 246L526 247L529 247L530 250L533 250L533 252L534 251L537 253L539 257L540 256L544 259L544 261L545 260L549 263L549 265L562 275L562 277L571 286L572 285L579 291L579 293L591 302L591 304L601 314L602 313L617 329L618 328L623 332L626 337L629 337L629 339L631 341L632 340L637 346L638 345L642 350L636 343L637 342L633 339L634 338L627 330L628 329L626 329L625 324L628 324L628 326L632 329L631 330L633 330L636 334L635 335L640 338L640 341L644 343L643 345L646 346L645 348L648 349L647 351L649 351L649 354L653 357L653 359L655 359L657 362L656 363L659 364L659 367L664 370L666 373L665 374L668 377L666 378L662 375L661 376L660 374L659 375L658 373L657 374L647 366L646 367L644 364L643 365L641 362L640 363L637 359L636 360L626 350L624 350L602 327L600 327L594 320L595 319L586 310L583 309L580 305L581 304L535 260L536 259L532 255L531 256L528 254L527 251L526 252L523 248L522 249ZM327 239L328 238L329 239L328 240ZM328 238L329 237L330 238L329 239ZM603 237L604 236L605 237L604 238ZM602 236L603 235L604 236L603 237ZM601 235L602 234L603 235L602 236ZM433 235L434 234L435 235L434 236ZM600 234L601 233L602 234L601 235ZM458 232L459 231L460 232L459 233ZM359 232L360 231L361 232L360 233ZM308 231L309 230L310 231L309 232ZM595 230L596 229L597 230L596 231ZM452 228L453 227L454 228L453 229ZM590 226L591 225L592 226L591 227ZM385 223L386 222L387 223L386 224ZM493 222L494 221L495 222L494 223ZM384 222L385 221L386 222L385 223ZM583 221L584 220L585 221L584 222ZM492 221L493 220L494 221L493 222ZM380 219L381 218L382 219L381 220ZM579 218L580 217L581 218L580 219ZM488 218L489 217L490 218L489 219ZM487 217L488 216L489 217L488 218ZM575 215L576 214L577 215L576 216ZM481 213L482 212L483 213L482 214ZM418 213L419 212L420 213L419 214ZM571 212L572 211L573 212L572 213ZM395 211L396 210L397 211L396 212ZM568 210L569 209L570 210L569 211ZM566 209L567 208L568 209L567 210ZM395 207L396 206L398 207L397 208ZM440 198L441 197L442 198L441 199ZM399 187L400 186L401 187L400 188ZM412 170L423 177L431 185L434 190L434 195L434 192L435 191L435 183L436 182L435 183L433 179L433 180L431 181L429 178L428 178L426 176L424 176L423 174L421 174L418 172L416 172Z"/>
    <path fill="#141414" fill-rule="evenodd" d="M417 768L416 768L416 770ZM406 744L404 745L404 748ZM552 711L550 714L549 713L545 718L543 717L545 719L544 720L544 724L548 720L547 718L549 716L549 715L551 713L552 713ZM548 714L549 713L550 714L549 715ZM546 699L542 707L542 706L545 703L546 703ZM567 693L558 701L559 700L561 701L559 703L560 703L561 700ZM537 688L536 689L536 691L534 693L533 693L533 694L535 693ZM431 685L431 687L429 689L432 689L431 688ZM550 669L549 669L551 670L551 672L549 674L548 673L549 671L548 671L545 674L544 676L544 680L542 684L544 680L552 671ZM545 677L546 676L547 677L546 678ZM546 676L547 675L548 676L547 677ZM547 674L548 673L549 675L548 676ZM546 673L547 672L548 673L547 674ZM553 664L551 666L552 668L552 665ZM560 656L560 657L556 660L557 661L556 663L557 664L559 662L558 663L557 661ZM556 663L557 662L558 663L557 664ZM567 649L562 655L563 656ZM814 642L814 643L816 644L819 647L819 648L818 645L816 644L817 643L816 644ZM575 637L570 641L568 645L568 647L570 645L572 640L574 639ZM569 643L570 642L571 643L570 644ZM755 636L754 637L756 639L757 639L755 638L756 637ZM754 637L755 636L756 637L755 638ZM800 627L802 629L803 628L806 631L805 632L809 635L803 628ZM745 626L744 627L750 634L747 631L748 629L749 630L750 629L749 630L747 628L746 629L745 628ZM746 629L747 628L748 629L747 630ZM376 626L375 631L374 632L373 631L372 632L373 633L372 634L372 636L375 633L375 629L376 628ZM822 625L821 626L824 628L823 629L825 631L825 632L826 631L823 629L824 628L821 626ZM584 624L581 631L578 634L579 634L585 628L583 630L582 629ZM581 630L582 629L583 630L582 631ZM706 602L709 608L708 609L710 611L710 612L713 615L714 615L712 613L712 612L711 612L710 610L708 609L709 608L708 607L709 604L708 604ZM721 601L722 602L721 603L722 602L723 603L723 606L726 609L727 609L725 607L724 604ZM723 606L724 605L725 606L724 607ZM647 596L646 600L644 603L645 606L644 607L643 606L644 607L642 608L642 610L640 614L647 604L646 602L647 601L648 602L649 601L649 600L647 599L648 597ZM644 603L645 602L646 603L645 604ZM586 587L584 589L584 591L581 593L578 601L579 601L578 600L579 599L582 599L588 593L587 594L586 593L585 594L583 592L585 591L585 590L587 588ZM585 594L586 593L587 594L586 595ZM581 593L582 592L583 593L582 594ZM585 588L586 587L587 588L586 589ZM717 544L717 551L718 549L718 546ZM740 543L741 544L741 546L742 545L741 543ZM673 529L673 539L673 532L674 531ZM661 512L662 517L662 513ZM715 486L719 490L718 488ZM284 485L284 486L282 488L281 487L281 485L281 490L280 492L282 491L281 489L284 486ZM631 472L631 474L630 475L631 479ZM559 450L559 454L558 455L557 453L557 456L558 457L558 464L557 465L556 464L556 459L554 456L554 454L554 456L555 457L555 461L557 465L557 468L559 471L557 472L557 475L557 473L559 471L559 467L558 466L558 464L559 463L558 462L558 458L559 457ZM736 434L737 433L736 434L736 436L737 435L739 436ZM319 433L318 434L321 440L322 440ZM335 431L336 433L336 435L335 436L336 438L338 439L338 436L336 434ZM718 425L725 432L725 433L729 435L728 436L729 435L732 438L725 432L726 431L722 427L721 428ZM722 429L723 428L724 429L723 430ZM721 428L722 427L723 428L722 429ZM557 424L556 426L556 433L558 435L557 436L557 440L559 443L559 447L559 443L558 442L558 434L557 433L558 431L557 430ZM655 421L654 421L654 426L654 423L655 422L656 423ZM354 418L353 420L354 419L355 420L355 422L356 423L355 424L356 425L355 424L357 423L363 430L359 425L359 423L357 422L358 421L357 422L355 420L356 418L355 419ZM686 413L687 415L688 413L689 414L688 413ZM472 405L471 406L472 408L473 408L472 407L473 406ZM336 401L336 407L337 406L336 405L337 403ZM502 396L505 401L505 399L504 398L505 397L503 397ZM529 394L533 399L531 396L531 394L530 395ZM525 387L524 389L528 392L527 389ZM565 383L564 391L566 395L566 399L567 400L566 401L567 400L566 399L567 397L565 394ZM356 377L359 383L358 382L358 380L356 378L357 377ZM352 366L353 368L351 370L351 371L355 375L356 375L354 372L354 370L353 371L352 370L353 368ZM588 361L589 362L590 361L593 365L594 365L596 367L598 367L593 364L589 360ZM588 361L589 360L590 361L589 362ZM560 350L566 355L565 356L567 358L568 357L570 359L562 351ZM566 357L567 356L568 357L567 358ZM565 356L566 355L567 356L566 357ZM702 349L708 355L708 356L710 357L709 358L710 357L712 359L712 360L712 359L709 356L710 355L708 353L708 352L706 353ZM708 355L709 354L710 355L709 356ZM706 353L707 352L708 353L707 354ZM266 343L265 344L263 343L262 345L261 344L260 345L262 346L260 350L258 352L256 352L256 355L255 357L253 358L253 359L251 360L250 362L250 364L248 367L249 368L247 369L246 371L245 370L246 372L246 371L248 370L248 369L255 363L255 360L256 358L258 356L261 350L266 344ZM255 357L256 356L257 357L256 358ZM262 345L263 344L264 345L263 346ZM702 342L708 349L709 348L710 349L712 356L718 360L720 360L721 359L720 357L719 358L716 355L715 356L711 352L712 350L711 348L707 347L705 345L706 344L704 342ZM710 350L711 349L712 350L711 351ZM707 348L708 347L709 348L708 349ZM704 344L705 343L706 344L705 345ZM703 343L704 342L705 343L704 344ZM439 338L441 342L441 339ZM424 287L426 290L427 294L429 295L429 293L428 294L426 292L426 289ZM309 229L306 233L305 232L302 237L299 240L300 241L301 240L300 239L307 232L308 230L309 231L308 230ZM299 240L300 239L301 240L300 241ZM429 208L428 209L426 209L425 211ZM570 207L575 210L572 207ZM464 179L470 179L469 178L466 178ZM430 176L431 177L430 178L431 180L432 180L433 178L435 180L436 184L435 182L436 181L435 178L434 178L432 176Z"/>
    <path fill="#050505" fill-rule="evenodd" d="M461 535L458 535L457 536L446 536L445 537L439 537L438 538L434 538L433 539L426 540L423 542L421 542L417 544L417 547L421 546L423 543L431 539L434 539L435 538L438 538L439 537L445 537L446 536L461 536ZM418 545L419 544L420 545L419 546ZM604 407L607 407L608 408L613 408L614 409L617 409L618 410L619 414L617 415L614 421L621 413L621 410L618 408L616 409L615 408L608 408L607 407ZM514 240L541 262L622 346L649 367L666 376L627 326L645 351L644 352L621 334L547 264ZM320 189L302 209L295 225L294 239L277 255L257 278L241 302L233 320L230 335L230 343L233 354L231 347L231 336L234 323L240 311L253 294L273 274L287 263L288 264L279 280L269 305L259 344L239 377L231 396L228 408L227 424L230 444L237 456L233 449L231 441L232 417L241 393L267 347L268 349L264 360L261 379L261 401L263 408L263 416L244 473L237 484L228 493L225 494L241 483L254 467L266 448L270 470L279 488L279 495L268 539L262 550L256 556L267 546L273 537L284 516L293 488L295 485L296 486L299 505L307 532L316 552L323 563L321 586L316 608L310 622L305 628L312 622L322 608L333 584L337 569L347 591L356 600L360 602L349 591L342 574L340 557L343 535L346 535L347 544L351 556L364 585L368 600L370 632L368 646L362 666L356 676L347 685L344 686L355 680L364 671L377 651L385 665L396 674L387 664L382 651L382 642L387 631L392 608L395 608L400 654L400 679L395 707L389 722L382 733L368 747L356 753L366 751L388 738L404 721L424 687L425 688L423 701L418 713L413 720L397 752L391 771L389 785L390 800L394 808L391 802L391 787L393 778L403 754L420 729L420 742L410 781L407 800L407 818L411 834L410 822L415 805L458 736L460 737L451 762L442 779L432 788L441 783L451 773L462 758L483 722L505 717L516 711L523 705L524 707L515 726L508 750L507 772L510 785L510 772L515 754L528 726L541 707L542 709L536 732L536 751L541 764L539 758L540 748L549 723L562 702L573 688L594 667L600 659L603 659L589 683L575 693L583 689L584 691L567 712L559 718L574 708L594 683L616 667L626 657L642 635L649 628L669 617L691 610L695 610L709 624L734 641L752 648L761 649L786 674L800 692L813 715L820 739L817 717L811 694L806 683L807 680L818 696L830 721L834 736L834 751L835 730L829 699L820 675L796 632L798 631L821 657L835 680L845 705L848 726L849 709L847 694L843 677L832 649L833 647L859 676L870 695L873 707L872 698L867 684L858 667L822 620L801 582L783 555L784 553L823 588L840 607L851 627L855 647L855 638L852 626L846 613L835 596L813 571L814 557L812 542L808 528L797 503L779 475L748 439L707 355L687 333L680 322L682 321L692 332L704 339L717 351L722 358L720 361L718 361L709 355L728 382L740 408L742 416L738 397L732 379L722 357L723 355L745 376L765 399L774 413L785 439L785 466L787 460L787 443L778 414L768 396L747 367L736 336L708 283L685 248L663 221L648 207L625 190L607 180L588 173L583 168L570 160L539 148L520 145L488 146L469 152L452 161L440 155L429 152L409 153L393 159L374 162L353 169L332 180ZM415 770L415 768L417 767L418 769L416 771ZM422 753L423 754L423 760L422 761L421 760L421 754ZM422 752L423 751L424 753L423 754ZM400 752L401 751L402 752L401 753ZM406 743L407 745L404 749L403 748L403 745L405 743ZM403 741L404 740L405 741L404 742ZM420 729L421 728L422 729L421 730ZM415 720L416 719L417 721L416 722ZM812 713L813 712L814 713L813 714ZM541 706L542 705L543 707L542 708ZM542 705L543 704L544 705L543 706ZM523 704L524 703L525 704L524 705ZM558 703L560 701L561 702L560 704ZM535 691L536 693L534 695L533 695L532 693ZM429 691L430 690L431 691L430 692ZM537 687L538 689L536 692L535 691L535 689ZM401 687L402 688L402 692L400 696L399 695L399 692L400 691L400 688ZM539 687L540 686L541 687L540 688ZM537 686L538 685L539 686L538 687ZM425 684L426 685L426 687L425 688L424 687L424 685ZM538 684L539 683L540 684L539 685ZM541 683L542 682L543 684L542 685ZM529 682L526 699L519 706L502 716L490 719L488 718L527 681ZM539 681L540 680L541 681L540 682ZM805 680L806 679L807 680L806 681ZM540 680L541 679L542 680L541 681ZM566 649L567 651L565 655L543 683L542 681L544 674L555 660ZM441 649L444 656L440 672L433 689L429 690L428 689L430 687L435 672L439 652ZM566 649L567 648L568 649L567 650ZM818 647L819 646L820 648L819 649ZM480 644L481 647L476 662L474 673L472 676L466 694L464 696L445 733L426 760L425 757L427 751L427 746L436 713L437 712L439 713L438 723L456 701L467 680L477 649ZM552 641L553 645L551 648L548 667L542 675L533 691L532 689L538 669L542 659ZM552 641L553 640L554 641L553 642ZM572 639L573 641L571 645L568 648L567 647L567 645L569 641L571 639ZM632 638L633 639L620 657L597 679L596 678L600 673L610 655L623 643ZM632 638L633 637L634 638L633 639ZM807 637L808 636L809 637L808 638ZM633 637L634 636L635 637L634 638ZM625 637L626 636L627 637L626 638ZM575 636L576 638L574 640L573 640L572 639ZM749 634L750 633L751 634L750 635ZM748 633L749 632L750 633L749 634ZM747 632L748 631L749 632L748 633ZM746 630L747 629L748 631L747 632ZM794 629L795 628L797 630L797 631L796 632L794 630ZM745 629L746 628L747 629L746 630ZM797 628L798 627L799 628L798 629ZM722 625L723 624L724 625L723 626ZM793 624L794 623L796 625L794 626ZM652 621L653 620L654 621L653 622ZM581 621L582 620L583 622L582 623ZM639 614L640 613L641 614L640 615ZM681 611L682 610L684 611L683 612ZM712 604L715 603L727 617L746 636L759 646L758 647L752 646L745 643L738 638L721 620ZM577 604L578 602L580 603L578 605ZM720 599L725 604L726 607L728 609L727 610L726 610L720 603L719 601ZM577 600L578 599L580 601L578 602ZM589 597L590 599L578 627L554 661L553 660L554 653L556 648L557 640L560 634ZM803 591L804 590L805 591L804 592ZM585 587L586 586L587 587L586 588ZM413 585L416 592L421 616L421 641L420 642L418 662L414 676L400 703L399 698L403 689L404 678L407 669L408 657L411 645L412 623L413 622L413 598L412 597L412 586ZM586 585L587 584L588 585L587 586ZM673 582L684 599L694 608L674 612L654 621L653 619L658 613L664 602L671 584ZM662 578L663 583L660 595L646 621L640 628L627 637L626 636L639 619L653 597ZM743 563L744 562L745 563L744 564ZM322 559L323 558L324 559L323 560ZM371 553L377 563L381 581L380 611L379 612L376 633L372 637L371 632L373 630L373 619L374 618L374 576L373 575L372 560L370 555ZM781 551L782 550L784 552L784 553L783 554L781 552ZM763 533L764 532L765 533L764 534ZM602 521L603 524L601 529L601 541L599 549L598 563L593 574L587 581L584 587L582 588L581 587L581 580L584 566L594 543L600 522ZM375 517L376 516L377 517L376 518ZM352 514L353 515L353 517L352 518L351 517L351 515ZM759 501L760 500L761 502L760 503ZM367 499L368 498L369 500L368 501ZM754 497L755 496L756 497L755 498ZM288 496L289 495L290 496L289 497ZM615 477L617 480L616 485L617 487L616 488L616 497L615 498L615 505L614 506L612 524L608 540L608 545L606 548L603 559L600 562L599 560L601 557L601 552L602 551L602 543L603 542L602 533L603 532L604 521L611 494L613 480ZM558 474L559 473L560 475L559 476ZM578 473L579 471L581 472L579 474ZM558 471L559 472L557 476L556 475L556 472ZM310 464L311 465L311 479L312 480L313 498L322 531L322 542L323 543L323 557L322 558L320 555L314 537L309 512L308 483L309 482L309 465ZM356 463L357 462L358 463L357 464ZM757 461L772 475L793 502L803 522L809 539L812 552L812 570L788 544L771 520L767 511L764 486L760 470L756 462ZM593 461L594 460L595 461L594 462ZM361 454L363 454L373 467L377 468L379 470L375 485L370 493L368 492L368 490L366 488L362 474L358 466L361 465L365 469L371 472L363 466L358 460L357 457ZM257 451L258 450L259 451L258 452ZM263 449L264 448L265 449L264 450ZM366 446L367 445L368 446L367 447ZM361 446L362 445L364 446L363 447ZM351 446L352 445L353 447L352 448ZM745 445L746 444L747 446L746 447ZM350 443L351 442L352 443L351 444ZM349 441L350 440L351 441L350 442ZM744 439L746 443L745 445L743 443L743 440ZM744 439L745 438L746 439L745 440ZM741 439L742 438L743 439L742 440ZM348 439L349 438L350 439L349 440ZM347 436L348 435L349 436L348 437ZM727 433L746 452L750 459L757 479L759 496L760 497L759 500L757 498L757 496L755 494L740 464L735 451L728 439L726 434ZM346 434L347 433L348 434L347 435ZM342 429L344 431L353 450L352 453L351 452L350 453L346 449L340 438L339 432ZM274 429L277 434L282 459L281 483L279 486L273 472L272 461L271 460L271 440ZM728 429L729 428L730 429L729 430ZM337 428L338 429L338 431L337 432L336 431L336 429ZM348 429L352 427L371 444L370 445L361 444L354 446L349 435ZM726 427L727 426L728 427L727 428ZM725 426L726 425L727 426L726 427ZM576 426L577 425L578 427L577 428ZM349 426L350 425L351 426L350 427ZM722 424L724 423L726 425L724 426ZM568 423L569 422L570 423L569 424ZM721 421L722 420L723 421L722 422ZM475 418L476 417L478 418L477 419ZM717 417L718 416L719 417L718 418ZM574 417L575 416L576 417L575 418ZM477 417L478 416L479 417L478 418ZM458 417L459 416L460 417L459 418ZM716 416L717 415L718 416L717 417ZM478 416L479 415L480 416L479 417ZM773 411L774 410L775 411L774 412ZM476 408L477 407L478 408L477 409ZM452 408L453 407L454 408L453 409ZM265 408L266 407L267 408L266 409ZM564 406L565 405L566 406L565 407ZM557 406L558 405L559 407L558 408ZM483 405L484 404L486 407L484 408L483 407ZM449 404L450 403L451 404L450 405ZM483 403L484 402L485 403L484 404ZM470 405L472 401L473 402L475 401L477 403L478 406L476 408L472 409ZM336 400L338 403L337 404L338 407L347 421L346 423L342 422L341 424L342 427L340 430L338 428L339 426L337 423L337 416L335 407L335 401ZM295 400L296 401L296 413L295 414L293 438L289 458L288 473L285 486L282 489L283 491L280 493L279 491L282 478L282 466L284 460L287 440L289 436L289 430ZM532 399L533 398L534 399L533 400ZM493 399L494 398L495 399L494 400ZM482 397L488 397L492 400L492 403L491 405L487 409L486 408L486 400L485 399L484 401L481 398ZM469 398L470 397L472 398L471 399ZM566 394L568 397L567 398L568 403L570 406L577 430L579 448L580 449L580 454L579 455L572 430L568 409L565 401L565 395ZM652 391L681 427L697 453L708 475L716 486L708 472L697 446L688 418L685 414L686 412L688 412L719 448L746 487L756 505L765 517L769 526L768 527L780 543L779 544L740 509L734 501L725 481L733 500L745 517L778 550L791 574L827 631L825 633L802 601L753 549L739 532L696 488L721 523L750 576L739 543L740 542L742 543L749 555L790 603L815 637L819 645L818 647L813 643L813 641L804 632L805 631L803 629L802 630L779 608L770 602L781 621L801 667L803 677L802 678L799 675L781 646L736 590L720 567L725 582L738 611L757 637L757 640L753 637L746 627L745 629L732 614L717 589L720 599L719 600L716 597L706 578L692 536L681 513L677 501L679 521L690 557L690 561L698 580L707 596L710 604L709 607L715 615L713 616L709 612L691 583L681 560L674 538L674 532L671 552L658 587L642 613L640 613L651 586L656 567L660 539L661 515L659 532L649 569L640 594L617 636L607 649L571 688L562 701L558 702L553 710L553 713L548 718L549 720L544 725L542 717L545 704L544 705L543 702L549 692L564 673L567 667L569 671L562 685L567 680L579 660L612 615L618 603L625 579L626 567L626 570L617 586L591 622L579 635L577 634L593 610L600 596L611 564L612 557L598 581L589 593L582 600L578 599L579 595L582 591L584 592L583 589L587 587L591 578L601 563L612 538L626 496L629 475L631 471L632 479L629 509L628 511L634 491L639 466L639 456L641 454L643 458L645 491L652 526L654 508L654 473L652 465L653 457L669 497L666 474L653 426L654 420L679 451L673 439L667 421L654 396L651 393ZM363 391L364 391L366 394L366 396L368 399L367 400L365 399L362 393ZM652 391L653 390L654 391L653 392ZM651 390L652 389L653 390L652 391ZM358 389L359 388L360 389L359 390ZM345 387L346 386L347 387L346 388ZM358 383L359 382L360 383L359 384ZM587 381L595 384L598 387L591 402L589 402L581 394L582 391L581 389ZM263 378L264 379L264 381L263 382L262 381L262 379ZM590 376L591 375L592 376L591 377ZM579 376L581 375L584 378L582 379ZM624 375L625 374L626 375L625 376ZM344 375L345 374L346 375L345 376ZM623 374L624 373L625 374L624 375ZM245 371L246 370L247 372L246 373ZM357 370L358 369L359 371L358 372ZM244 370L245 369L246 370L245 371ZM457 368L458 367L459 368L458 369ZM458 375L460 373L475 366L481 372L496 393L495 394L493 393L491 394L481 394L468 397ZM472 366L473 365L474 366L473 367ZM473 365L474 364L475 365L474 366ZM560 351L562 350L571 359L571 360L573 362L574 362L578 366L582 368L591 375L590 376L588 376L582 371L575 367ZM559 350L560 349L561 350L560 351ZM257 349L258 348L259 349L258 350ZM679 321L680 320L681 321L680 322ZM439 314L443 318L466 353L473 361L472 362L457 367L453 366L441 329L438 317ZM422 309L437 344L449 367L448 369L439 371L436 366L429 349L423 330L420 311ZM364 308L365 307L366 308L365 309ZM377 295L378 294L379 295L378 296ZM280 295L281 294L282 295L281 296ZM464 293L465 292L466 293L465 294ZM407 293L408 292L409 293L408 294ZM463 291L464 290L465 291L464 292ZM371 293L380 297L385 301L386 304L386 302L388 301L389 306L395 296L404 289L406 289L407 291L403 293L397 301L409 294L415 295L421 309L420 314L425 338L433 360L439 371L397 392L394 395L390 404L387 398L390 405L397 406L441 382L453 377L464 398L444 399L434 402L424 408L421 411L420 415L427 407L434 403L448 399L453 400L440 406L430 415L427 423L427 431L442 415L453 409L457 417L463 422L466 422L473 418L476 419L463 427L453 431L464 427L481 417L492 426L502 431L494 427L483 417L493 403L495 396L498 395L513 424L519 445L521 472L519 484L516 491L520 482L523 465L523 443L520 428L521 427L535 442L549 452L531 437L521 423L514 409L503 377L498 367L498 361L518 388L543 415L552 451L551 453L553 456L557 481L557 515L561 474L561 444L558 417L559 407L579 466L574 489L567 506L575 489L579 475L581 473L583 478L586 501L584 474L580 461L581 441L579 427L568 387L570 385L581 398L600 414L599 422L592 437L593 439L602 432L624 422L632 414L624 422L599 433L598 431L604 421L604 417L590 405L598 405L594 404L592 401L598 394L598 391L600 389L603 389L634 405L633 401L625 399L601 385L604 380L612 373L620 373L624 375L632 384L635 390L636 399L634 386L630 378L621 369L617 368L611 371L605 377L601 385L591 377L605 362L611 359L618 358L625 361L632 367L641 380L644 391L644 409L637 427L627 441L611 456L602 460L590 461L596 464L598 467L599 487L594 527L581 570L580 584L582 590L551 632L539 654L535 665L533 664L524 642L512 627L498 596L519 573L535 551L558 526L523 560L486 590L464 603L449 604L442 598L435 587L413 561L390 537L379 521L374 510L376 509L390 517L399 526L397 522L390 516L374 507L369 500L384 459L384 456L382 454L385 453L395 459L402 461L389 455L373 440L361 419L357 415L351 403L346 379L347 373L349 374L362 400L378 425L393 440L411 451L400 444L384 427L372 406L360 375L354 347L353 327L365 315L373 311L370 311L369 313L366 312L360 315L359 313L363 310L379 310L372 307L367 308L367 305L371 303L379 303L384 306L380 300L371 296ZM682 266L699 283L712 300L731 334L738 352L744 362L743 363L740 361L739 358L721 334L704 306L693 285L681 267ZM322 262L323 261L324 262L323 263ZM287 263L289 261L290 262L289 264ZM323 261L324 260L325 261L324 262ZM287 260L288 259L289 260L288 261ZM411 230L412 229L413 230L412 231ZM416 226L417 227L414 230L413 230L412 229L415 226ZM424 211L425 210L426 211L425 212ZM574 210L575 209L576 210L575 211ZM740 436L735 436L735 433L714 411L698 389L685 364L669 326L655 300L614 259L622 268L651 310L708 407L727 431L726 434L703 411L688 399L671 388L642 375L631 364L625 360L616 357L530 280L539 291L561 326L576 346L588 359L599 367L596 368L585 360L559 336L508 274L481 247L505 278L543 335L564 376L566 383L565 395L563 391L562 381L546 349L540 341L538 335L549 368L557 407L556 409L559 431L558 443L556 440L554 411L545 384L550 420L555 436L558 454L558 443L560 443L559 472L556 468L550 435L529 369L520 351L518 349L529 382L530 391L533 397L532 399L503 364L487 336L474 308L465 294L466 293L469 296L462 288L475 323L487 349L502 391L506 397L505 402L494 384L447 318L435 296L428 288L430 295L428 296L442 339L442 342L440 342L432 320L416 287L404 270L396 264L391 264L389 266L389 280L387 281L374 266L368 263L361 262L357 266L351 280L347 304L347 336L351 363L358 377L358 383L347 364L338 334L336 318L337 355L342 384L353 413L367 434L367 438L349 419L335 398L330 386L327 369L330 407L335 430L339 436L338 440L335 438L329 427L326 417L319 380L318 340L321 318L328 294L344 259L319 297L311 319L309 368L316 419L319 432L324 443L326 458L332 479L352 519L351 521L339 503L329 482L324 465L321 441L317 434L309 406L302 363L303 343L308 313L301 326L288 368L269 406L267 408L266 407L286 347L305 300L269 339L257 358L256 363L248 371L246 369L250 360L254 357L255 352L259 350L261 346L259 345L261 343L262 344L262 341L266 337L269 330L292 297L321 265L335 255L326 261L324 260L341 246L312 263L290 284L282 295L281 292L292 276L308 256L331 234L343 226L363 218L334 221L320 228L296 244L295 242L301 237L303 233L314 224L336 211L361 201L386 194L401 194L402 192L399 188L392 185L379 183L395 181L409 188L418 199L421 207L424 208L414 222L407 212L399 208L406 217L408 224L406 226L403 219L392 210L382 207L363 208L360 210L374 213L383 218L389 224L393 232L393 246L391 248L385 240L376 235L367 233L358 234L347 239L358 239L373 244L380 250L384 258L390 251L396 249L407 249L418 254L411 246L401 243L409 237L422 233L445 234L464 240L468 243L461 235L444 225L432 222L423 223L417 226L415 225L420 220L428 216L449 213L468 216L486 222L498 228L483 215L459 204L442 203L431 207L427 211L425 209L432 202L444 194L465 186L481 185L508 190L498 184L485 180L463 179L466 177L480 174L506 173L532 180L553 191L575 209L573 210L555 198L536 189L571 209L599 230L621 251L649 286L664 309L678 325L704 366L732 420L736 431ZM391 174L375 179L343 197L317 217L295 239L294 238L295 229L300 215L306 206L327 187L342 179L361 173L387 172ZM580 171L581 170L582 171L581 172ZM410 169L414 169L422 172L430 177L429 176L430 175L432 175L436 178L437 184L436 185L436 193L434 198L433 197L433 191L431 187L424 179L419 175L409 170ZM407 159L411 157L431 158L442 162L446 166L441 170L439 170L427 163L417 160L408 160ZM475 163L484 157L494 153L506 150L521 149L522 150L540 151L554 155L567 161L581 170L579 171L555 164L550 164L545 162L540 162L528 159L521 159L520 158L492 159L483 161L477 164Z"/>
  </g>
</svg>
