<svg xmlns="http://www.w3.org/2000/svg" viewBox="0 0 256 256" role="img" aria-labelledby="title desc">
<title id="title">baicai.dev future B mark</title>
<desc id="desc">A rounded B formed by data traces, circuit nodes and a leaf.</desc>
<defs style="display:none">
  <linearGradient id="g" x1="28" y1="28" x2="220" y2="228" gradientUnits="userSpaceOnUse">
    <stop offset="0" stop-color="#35B7A6"/>
    <stop offset="0.52" stop-color="#72D06B"/>
    <stop offset="1" stop-color="#B8F58B"/>
  </linearGradient>
</defs>
<g fill="none" stroke="#071015" stroke-width="15" stroke-linecap="round" stroke-linejoin="round">
  <path d="M86 33v190"/>
  <path d="M86 36h43c39 0 62 19 62 49 0 27-20 44-54 47"/>
  <path d="M86 132h48c39 0 65 18 65 47 0 31-25 44-66 44H86"/>
  <path d="M29 50h57"/>
  <path d="M29 88h57"/>
  <path d="M29 126h57"/>
  <path d="M97 187c18-29 51-36 75-20-14 31-43 47-75 43"/>
</g>
<g fill="#071015">
  <circle cx="29" cy="50" r="8"/>
  <circle cx="29" cy="88" r="8"/>
  <circle cx="29" cy="126" r="8"/>
</g>
</svg>